<?xml version="1.0" encoding="UTF-8"?>
<svg version="1.1" xmlns="http://www.w3.org/2000/svg" width="160" height="160">
<path d="M0 0 C0.98150276 -0.01029488 0.98150276 -0.01029488 1.98283386 -0.02079773 C4.13469461 -0.03902155 6.28582316 -0.03523486 8.43774414 -0.02954102 C9.94080338 -0.0341051 11.44386053 -0.03941135 12.94691467 -0.04542542 C16.09327688 -0.05434789 19.23938516 -0.05194355 22.38574219 -0.04199219 C26.40861791 -0.03050552 30.43061544 -0.05071273 34.45337582 -0.07990932 C37.55645778 -0.09829692 40.65933029 -0.09797381 43.76245308 -0.0922718 C45.24515578 -0.09211889 46.72787295 -0.09813858 48.21052361 -0.11056328 C50.28803717 -0.12552066 52.36394143 -0.1147645 54.44140625 -0.09765625 C55.62101425 -0.09749008 56.80062225 -0.09732391 58.01597595 -0.09715271 C62.81488844 0.63852451 65.93931197 2.90557695 69.14868164 6.47827148 C70.90965455 11.01081 70.59893215 15.40472492 70.47290039 20.21655273 C70.45259766 21.68511719 70.45259766 21.68511719 70.43188477 23.18334961 C70.39665351 25.59081899 70.34739304 27.99714838 70.28540039 30.40405273 C70.74720703 30.04311523 71.20901367 29.68217773 71.68481445 29.31030273 C72.30066406 28.84624023 72.91651367 28.38217773 73.55102539 27.90405273 C74.15720703 27.43999023 74.76338867 26.97592773 75.38793945 26.49780273 C77.28540039 25.40405273 77.28540039 25.40405273 81.03540039 25.40405273 C85.7570985 26.85688292 85.7570985 26.85688292 87.28540039 29.40405273 C88.08982438 32.80738499 88.60398988 35.33243355 87.59790039 38.71655273 C85.91424569 40.88125164 84.9335605 41.61676189 82.28540039 42.40405273 C76.41582387 42.19061359 75.14197733 41.28931429 70.28540039 37.40405273 C70.61540039 44.00405273 70.94540039 50.60405273 71.28540039 57.40405273 C72.60540039 56.08405273 73.92540039 54.76405273 75.28540039 53.40405273 C79.03540039 53.15405273 79.03540039 53.15405273 82.28540039 53.40405273 C82.59477539 52.76467773 82.90415039 52.12530273 83.22290039 51.46655273 C84.28540039 49.40405273 84.28540039 49.40405273 85.28540039 48.40405273 C88.33892972 47.97048873 91.23573692 47.93487374 94.28540039 48.40405273 C97.35402395 50.94876496 98.13363703 52.49347254 98.78540039 56.40405273 C98.13363703 60.31463292 97.35402395 61.85934051 94.28540039 64.40405273 C91.20453644 64.99353212 88.3531082 65.08199921 85.28540039 64.40405273 C83.50805664 62.99780273 83.50805664 62.99780273 82.28540039 61.40405273 C82.28540039 60.74405273 82.28540039 60.08405273 82.28540039 59.40405273 C78.71350813 60.61890991 78.71350813 60.61890991 75.84790039 62.96655273 C73.57056072 65.06170523 71.28830837 65.07039629 68.28540039 65.40405273 C68.78040039 66.95092773 68.78040039 66.95092773 69.28540039 68.52905273 C70.43935054 72.13514694 70.28540039 74.2581165 70.28540039 78.40405273 C75.89540039 78.40405273 81.50540039 78.40405273 87.28540039 78.40405273 C88.27540039 76.42405273 88.27540039 76.42405273 89.28540039 74.40405273 C90.85458531 72.83486781 92.42625198 73.1214633 94.59790039 73.02905273 C98.18115623 73.07469931 98.98252112 73.15288456 101.84790039 75.52905273 C103.53959808 78.91244812 103.9073597 80.67229687 103.28540039 84.40405273 C101.84790039 87.27905273 101.84790039 87.27905273 99.28540039 89.40405273 C96.20453644 89.99353212 93.3531082 90.08199921 90.28540039 89.40405273 C88.50805664 87.99780273 88.50805664 87.99780273 87.28540039 86.40405273 C87.28540039 85.74405273 87.28540039 85.08405273 87.28540039 84.40405273 C81.67540039 84.40405273 76.06540039 84.40405273 70.28540039 84.40405273 C70.14102539 85.99217773 69.99665039 87.58030273 69.84790039 89.21655273 C69.57731255 92.193019 69.23567638 94.55322477 68.28540039 97.40405273 C69.37852539 97.67217773 70.47165039 97.94030273 71.59790039 98.21655273 C75.10320144 99.3453785 75.96055113 99.85778926 78.28540039 102.40405273 C80.3887293 103.11852916 80.3887293 103.11852916 82.28540039 103.40405273 C82.59477539 102.76467773 82.90415039 102.12530273 83.22290039 101.46655273 C84.28540039 99.40405273 84.28540039 99.40405273 85.28540039 98.40405273 C88.33892972 97.97048873 91.23573692 97.93487374 94.28540039 98.40405273 C97.35402395 100.94876496 98.13363703 102.49347254 98.78540039 106.40405273 C98.13363703 110.31463292 97.35402395 111.85934051 94.28540039 114.40405273 C91.20453644 114.99353212 88.3531082 115.08199921 85.28540039 114.40405273 C83.50805664 112.99780273 83.50805664 112.99780273 82.28540039 111.40405273 C82.28540039 110.74405273 82.28540039 110.08405273 82.28540039 109.40405273 C81.21290039 109.48655273 80.14040039 109.56905273 79.03540039 109.65405273 C75.28540039 109.40405273 75.28540039 109.40405273 71.28540039 105.40405273 C70.95540039 112.00405273 70.62540039 118.60405273 70.28540039 125.40405273 C72.59540039 123.75405273 74.90540039 122.10405273 77.28540039 120.40405273 C80.86305097 120.40405273 83.092249 120.6881619 86.16040039 122.52905273 C87.90689294 125.43987366 88.10872227 128.04716853 88.28540039 131.40405273 C87.49810955 134.05221284 86.7625993 135.03289803 84.59790039 136.71655273 C81.16636854 137.73673788 78.74049592 137.25267269 75.28540039 136.40405273 C72.34790039 134.34155273 72.34790039 134.34155273 70.28540039 132.40405273 C70.33180664 133.12850586 70.37821289 133.85295898 70.42602539 134.59936523 C70.65499991 140.73261136 70.65851112 144.67636546 66.28540039 149.40405273 C62.30888599 152.31913786 59.46210985 152.78568658 54.57080078 152.80810547 C53.91646561 152.81496872 53.26213043 152.82183197 52.58796692 152.8289032 C50.43610617 152.84712702 48.28497762 152.84334032 46.13305664 152.83764648 C44.6299974 152.84221057 43.12694025 152.84751682 41.62388611 152.85353088 C38.4775239 152.86245336 35.33141562 152.86004902 32.18505859 152.85009766 C28.16218287 152.83861099 24.14018534 152.85881819 20.11742496 152.88801479 C17.01434301 152.90640239 13.91147049 152.90607928 10.8083477 152.90037727 C9.325645 152.90022436 7.84292783 152.90624405 6.36027718 152.91866875 C4.28276361 152.93362613 2.20685935 152.92286997 0.12939453 152.90576172 C-1.05021347 152.90559555 -2.22982147 152.90542938 -3.44517517 152.90525818 C-8.24406257 152.16958481 -11.36061496 149.89343585 -14.58959961 146.34155273 C-16.338205 141.77574976 -15.94309528 137.23631295 -15.71459961 132.40405273 C-16.72522461 133.24967773 -17.73584961 134.09530273 -18.77709961 134.96655273 C-21.79112713 137.1246698 -22.55587501 137.40405273 -26.46459961 137.40405273 C-31.18629772 135.95122255 -31.18629772 135.95122255 -32.71459961 133.40405273 C-33.5190236 130.00072048 -34.0331891 127.47567191 -33.02709961 124.09155273 C-31.3434449 121.92685383 -30.36275972 121.19134358 -27.71459961 120.40405273 C-21.84502309 120.61749188 -20.57117655 121.51879118 -15.71459961 125.40405273 C-16.04459961 118.80405273 -16.37459961 112.20405273 -16.71459961 105.40405273 C-18.03459961 106.72405273 -19.35459961 108.04405273 -20.71459961 109.40405273 C-24.46459961 109.65405273 -24.46459961 109.65405273 -27.71459961 109.40405273 C-28.02397461 110.04342773 -28.33334961 110.68280273 -28.65209961 111.34155273 C-29.71459961 113.40405273 -29.71459961 113.40405273 -30.71459961 114.40405273 C-33.76812894 114.83761674 -36.66493614 114.87323173 -39.71459961 114.40405273 C-42.78322317 111.85934051 -43.56283624 110.31463292 -44.21459961 106.40405273 C-43.56283624 102.49347254 -42.78322317 100.94876496 -39.71459961 98.40405273 C-36.63373566 97.81457335 -33.78230742 97.72610626 -30.71459961 98.40405273 C-28.93725586 99.81030273 -28.93725586 99.81030273 -27.71459961 101.40405273 C-27.71459961 102.06405273 -27.71459961 102.72405273 -27.71459961 103.40405273 C-24.14270734 102.18919556 -24.14270734 102.18919556 -21.27709961 99.84155273 C-18.99975994 97.74640023 -16.71750758 97.73770918 -13.71459961 97.40405273 C-14.20959961 95.85717773 -14.20959961 95.85717773 -14.71459961 94.27905273 C-15.86854976 90.67295853 -15.71459961 88.54998897 -15.71459961 84.40405273 C-21.32459961 84.40405273 -26.93459961 84.40405273 -32.71459961 84.40405273 C-33.37459961 85.72405273 -34.03459961 87.04405273 -34.71459961 88.40405273 C-36.28378453 89.97323765 -37.8554512 89.68664216 -40.02709961 89.77905273 C-43.61035545 89.73340616 -44.41172034 89.65522091 -47.27709961 87.27905273 C-48.9687973 83.89565735 -49.33655892 82.1358086 -48.71459961 78.40405273 C-47.27709961 75.52905273 -47.27709961 75.52905273 -44.71459961 73.40405273 C-41.63373566 72.81457335 -38.78230742 72.72610626 -35.71459961 73.40405273 C-33.93725586 74.81030273 -33.93725586 74.81030273 -32.71459961 76.40405273 C-32.71459961 77.06405273 -32.71459961 77.72405273 -32.71459961 78.40405273 C-27.10459961 78.40405273 -21.49459961 78.40405273 -15.71459961 78.40405273 C-15.57022461 76.81592773 -15.42584961 75.22780273 -15.27709961 73.59155273 C-15.00651177 70.61508647 -14.6648756 68.25488069 -13.71459961 65.40405273 C-14.80772461 65.13592773 -15.90084961 64.86780273 -17.02709961 64.59155273 C-20.53240066 63.46272697 -21.38975035 62.95031621 -23.71459961 60.40405273 C-25.81792852 59.68957631 -25.81792852 59.68957631 -27.71459961 59.40405273 C-28.02397461 60.04342773 -28.33334961 60.68280273 -28.65209961 61.34155273 C-29.71459961 63.40405273 -29.71459961 63.40405273 -30.71459961 64.40405273 C-33.76812894 64.83761674 -36.66493614 64.87323173 -39.71459961 64.40405273 C-42.78322317 61.85934051 -43.56283624 60.31463292 -44.21459961 56.40405273 C-43.56283624 52.49347254 -42.78322317 50.94876496 -39.71459961 48.40405273 C-36.63373566 47.81457335 -33.78230742 47.72610626 -30.71459961 48.40405273 C-28.93725586 49.81030273 -28.93725586 49.81030273 -27.71459961 51.40405273 C-27.71459961 52.06405273 -27.71459961 52.72405273 -27.71459961 53.40405273 C-26.64209961 53.32155273 -25.56959961 53.23905273 -24.46459961 53.15405273 C-20.71459961 53.40405273 -20.71459961 53.40405273 -16.71459961 57.40405273 C-16.38459961 50.80405273 -16.05459961 44.20405273 -15.71459961 37.40405273 C-18.02459961 39.05405273 -20.33459961 40.70405273 -22.71459961 42.40405273 C-26.29225019 42.40405273 -28.52144822 42.11994357 -31.58959961 40.27905273 C-33.33609216 37.36823181 -33.53792149 34.76093694 -33.71459961 31.40405273 C-32.92730877 28.75589263 -32.19179852 27.77520744 -30.02709961 26.09155273 C-26.59556776 25.07136759 -24.16969514 25.55543278 -20.71459961 26.40405273 C-19.01092049 27.68975606 -17.33749334 29.01777301 -15.71459961 30.40405273 C-15.73554687 29.79932129 -15.75649414 29.19458984 -15.77807617 28.5715332 C-15.86168906 25.80754502 -15.91340015 23.04382361 -15.96459961 20.27905273 C-15.99811523 19.32772461 -16.03163086 18.37639648 -16.06616211 17.39624023 C-16.1472729 11.55626361 -15.83956637 7.90784297 -11.71459961 3.40405273 C-7.73932849 0.48772652 -4.89060696 0.02241567 0 0 Z M-7.90209961 9.34155273 C-10.39785276 13.55851495 -10.16147316 16.91965299 -9.96459961 21.71655273 C-9.94655273 22.55250977 -9.92850586 23.3884668 -9.90991211 24.24975586 C-9.86301087 26.30168502 -9.79127372 28.35302029 -9.71459961 30.40405273 C-8.51061523 30.63479492 -7.30663086 30.86553711 -6.06616211 31.10327148 C-1.73406888 32.18010609 0.64070257 34.14944426 3.91040039 37.21655273 C7.65756537 40.22578497 9.30860957 41.42370647 14.16821289 41.32592773 C17.64977186 40.55224796 20.94049042 39.63612756 24.28540039 38.40405273 C23.86541712 34.79549918 23.86541712 34.79549918 21.72290039 32.09155273 C19.61898326 29.62173697 19.86099338 27.43779931 20.01196289 24.27905273 C20.28540039 22.40405273 20.28540039 22.40405273 21.28540039 20.40405273 C24.54745593 18.77302496 27.72095428 18.88423768 31.28540039 19.40405273 C33.28540039 20.40405273 33.28540039 20.40405273 34.28540039 22.40405273 C34.61988415 25.41440658 34.84380172 27.50624372 34.28540039 30.40405273 C32.28540039 32.65405273 32.28540039 32.65405273 30.28540039 34.40405273 C30.28540039 35.72405273 30.28540039 37.04405273 30.28540039 38.40405273 C38.14476123 41.59557256 38.14476123 41.59557256 46.22583008 40.58081055 C49.44459416 38.59582311 52.26472473 36.25148343 55.12915039 33.79467773 C58.39210662 31.32323069 60.25986444 30.67080512 64.28540039 30.40405273 C64.39369353 27.50721115 64.47283993 24.61444254 64.53540039 21.71655273 C64.56891602 20.89993164 64.60243164 20.08331055 64.63696289 19.24194336 C64.70338563 15.14033899 64.60679138 12.94709269 62.47290039 9.34155273 C60.36283694 7.08986683 60.36283694 7.08986683 57.03540039 7.09155273 C56.12790039 7.19467773 55.22040039 7.29780273 54.28540039 7.40405273 C52.63540039 10.37405273 50.98540039 13.34405273 49.28540039 16.40405273 C34.76540039 16.40405273 20.24540039 16.40405273 5.28540039 16.40405273 C3.63540039 13.43405273 1.98540039 10.46405273 0.28540039 7.40405273 C-3.39594954 6.98571751 -5.06542519 6.82906968 -7.90209961 9.34155273 Z M8.28540039 7.40405273 C8.61540039 8.39405273 8.94540039 9.38405273 9.28540039 10.40405273 C21.16540039 10.40405273 33.04540039 10.40405273 45.28540039 10.40405273 C45.61540039 9.41405273 45.94540039 8.42405273 46.28540039 7.40405273 C33.74540039 7.40405273 21.20540039 7.40405273 8.28540039 7.40405273 Z M26.28540039 24.40405273 C26.28540039 25.72405273 26.28540039 27.04405273 26.28540039 28.40405273 C27.27540039 28.07405273 28.26540039 27.74405273 29.28540039 27.40405273 C28.95540039 26.41405273 28.62540039 25.42405273 28.28540039 24.40405273 C27.62540039 24.40405273 26.96540039 24.40405273 26.28540039 24.40405273 Z M-26.71459961 32.40405273 C-26.71459961 33.39405273 -26.71459961 34.38405273 -26.71459961 35.40405273 C-25.72459961 35.40405273 -24.73459961 35.40405273 -23.71459961 35.40405273 C-23.71459961 34.41405273 -23.71459961 33.42405273 -23.71459961 32.40405273 C-24.70459961 32.40405273 -25.69459961 32.40405273 -26.71459961 32.40405273 Z M78.28540039 32.40405273 C78.28540039 33.39405273 78.28540039 34.38405273 78.28540039 35.40405273 C79.27540039 35.40405273 80.26540039 35.40405273 81.28540039 35.40405273 C81.28540039 34.41405273 81.28540039 33.42405273 81.28540039 32.40405273 C80.29540039 32.40405273 79.30540039 32.40405273 78.28540039 32.40405273 Z M-9.71459961 37.40405273 C-9.71459961 44.33405273 -9.71459961 51.26405273 -9.71459961 58.40405273 C-5.91200025 54.79001519 -5.91200025 54.79001519 -3.83959961 51.90405273 C-1.43239487 49.07204716 1.13084509 47.33980258 4.28540039 45.40405273 C1.258849 42.1446897 -1.86754328 39.64816893 -5.71459961 37.40405273 C-7.03459961 37.40405273 -8.35459961 37.40405273 -9.71459961 37.40405273 Z M55.03540039 40.90405273 C54.14336914 41.55374023 53.25133789 42.20342773 52.33227539 42.87280273 C51.65680664 43.37811523 50.98133789 43.88342773 50.28540039 44.40405273 C52.38095648 46.5440062 54.38449847 48.47837629 56.78540039 50.27905273 C59.61259813 52.68217081 61.30303842 55.28891249 63.28540039 58.40405273 C63.61540039 58.40405273 63.94540039 58.40405273 64.28540039 58.40405273 C64.28540039 51.47405273 64.28540039 44.54405273 64.28540039 37.40405273 C59.68043065 37.40405273 58.64428471 38.24487481 55.03540039 40.90405273 Z M-1.02709961 57.65405273 C-7.60329533 65.50094763 -10.02440609 74.21916465 -9.71459961 84.40405273 C-8.20105181 96.00306807 -3.01190498 104.22949548 5.87524414 111.67749023 C14.00164328 117.49899497 23.55396273 119.28243356 33.39868164 117.99780273 C44.57198358 115.6126506 52.65786439 109.65561317 59.28540039 100.40405273 C64.25158831 91.66298787 65.30782582 81.98343553 63.22290039 72.21655273 C60.19139465 61.78980428 53.37396097 53.43137943 43.90649414 48.05249023 C27.48668216 40.72551153 11.12116146 44.99122444 -1.02709961 57.65405273 Z M-35.71459961 54.40405273 C-35.71459961 55.72405273 -35.71459961 57.04405273 -35.71459961 58.40405273 C-35.05459961 58.07405273 -34.39459961 57.74405273 -33.71459961 57.40405273 C-34.04459961 56.41405273 -34.37459961 55.42405273 -34.71459961 54.40405273 C-35.04459961 54.40405273 -35.37459961 54.40405273 -35.71459961 54.40405273 Z M89.28540039 54.40405273 C89.28540039 55.72405273 89.28540039 57.04405273 89.28540039 58.40405273 C89.94540039 58.07405273 90.60540039 57.74405273 91.28540039 57.40405273 C90.95540039 56.41405273 90.62540039 55.42405273 90.28540039 54.40405273 C89.95540039 54.40405273 89.62540039 54.40405273 89.28540039 54.40405273 Z M-40.71459961 79.40405273 C-40.71459961 80.72405273 -40.71459961 82.04405273 -40.71459961 83.40405273 C-40.05459961 83.07405273 -39.39459961 82.74405273 -38.71459961 82.40405273 C-39.04459961 81.41405273 -39.37459961 80.42405273 -39.71459961 79.40405273 C-40.04459961 79.40405273 -40.37459961 79.40405273 -40.71459961 79.40405273 Z M94.28540039 79.40405273 C94.28540039 80.72405273 94.28540039 82.04405273 94.28540039 83.40405273 C94.94540039 83.07405273 95.60540039 82.74405273 96.28540039 82.40405273 C95.95540039 81.41405273 95.62540039 80.42405273 95.28540039 79.40405273 C94.95540039 79.40405273 94.62540039 79.40405273 94.28540039 79.40405273 Z M-35.71459961 104.40405273 C-35.71459961 105.72405273 -35.71459961 107.04405273 -35.71459961 108.40405273 C-35.05459961 108.07405273 -34.39459961 107.74405273 -33.71459961 107.40405273 C-34.04459961 106.41405273 -34.37459961 105.42405273 -34.71459961 104.40405273 C-35.04459961 104.40405273 -35.37459961 104.40405273 -35.71459961 104.40405273 Z M-9.71459961 104.40405273 C-9.71459961 111.33405273 -9.71459961 118.26405273 -9.71459961 125.40405273 C-3.76188037 124.46618171 -3.76188037 124.46618171 0.66040039 121.34155273 C1.34875977 120.79370117 2.03711914 120.24584961 2.74633789 119.68139648 C3.25422852 119.25987305 3.76211914 118.83834961 4.28540039 118.40405273 C2.21002988 116.25181665 0.18143613 114.32607954 -2.21459961 112.52905273 C-5.04179735 110.12593466 -6.73223764 107.51919298 -8.71459961 104.40405273 C-9.04459961 104.40405273 -9.37459961 104.40405273 -9.71459961 104.40405273 Z M63.28540039 104.40405273 C62.20007777 105.80331165 61.14260579 107.22421312 60.09790039 108.65405273 C57.13622784 112.53971817 54.52641428 115.02494738 50.28540039 117.40405273 C53.31195178 120.66341577 56.43834406 123.15993654 60.28540039 125.40405273 C61.60540039 125.40405273 62.92540039 125.40405273 64.28540039 125.40405273 C64.28540039 118.47405273 64.28540039 111.54405273 64.28540039 104.40405273 C63.95540039 104.40405273 63.62540039 104.40405273 63.28540039 104.40405273 Z M89.28540039 104.40405273 C89.28540039 105.72405273 89.28540039 107.04405273 89.28540039 108.40405273 C89.94540039 108.07405273 90.60540039 107.74405273 91.28540039 107.40405273 C90.95540039 106.41405273 90.62540039 105.42405273 90.28540039 104.40405273 C89.95540039 104.40405273 89.62540039 104.40405273 89.28540039 104.40405273 Z M-0.55834961 129.01342773 C-3.82130584 131.48487478 -5.68906366 132.13730035 -9.71459961 132.40405273 C-9.79709961 133.62092773 -9.87959961 134.83780273 -9.96459961 136.09155273 C-10.01100586 136.77604492 -10.05741211 137.46053711 -10.10522461 138.16577148 C-9.52513121 141.48970669 -8.0718942 143.02507359 -5.71459961 145.40405273 C-2.69073849 146.15921489 -2.69073849 146.15921489 0.73461914 146.05102539 C2.69685425 146.0746666 2.69685425 146.0746666 4.69873047 146.0987854 C6.12346235 146.08983563 7.54818654 146.07958064 8.97290039 146.06811523 C10.43734134 146.0714846 11.90177955 146.07633822 13.36621094 146.08261108 C16.43296984 146.08997695 19.49899978 146.07928757 22.56567383 146.0559082 C26.49374917 146.02741882 30.42011658 146.04382458 34.34812927 146.07377052 C37.37142775 146.09185227 40.39432231 146.08608185 43.41763306 146.07313156 C44.8656942 146.06979988 46.31379221 146.07387638 47.7618103 146.08552933 C49.78659346 146.09824846 51.81150547 146.07541889 53.83618164 146.05102539 C54.98771729 146.04704742 56.13925293 146.04306946 57.32568359 146.03897095 C60.48100753 145.64428518 60.48100753 145.64428518 62.6640625 143.00350952 C64.33409773 140.32597731 64.74454756 139.17647344 64.53540039 136.09155273 C64.45290039 134.87467773 64.37040039 133.65780273 64.28540039 132.40405273 C63.21290039 132.25967773 62.14040039 132.11530273 61.03540039 131.96655273 C56.54482039 130.94238537 54.07578315 128.60404852 50.66040039 125.59155273 C46.91323541 122.5823205 45.26219121 121.384399 40.40258789 121.48217773 C36.92102892 122.25585751 33.63031036 123.17197791 30.28540039 124.40405273 C30.70538366 128.01260629 30.70538366 128.01260629 32.84790039 130.71655273 C34.95181752 133.18636849 34.7098074 135.37030615 34.55883789 138.52905273 C34.28540039 140.40405273 34.28540039 140.40405273 33.28540039 142.40405273 C30.02334485 144.03508051 26.8498465 143.92386779 23.28540039 143.40405273 C21.28540039 142.40405273 21.28540039 142.40405273 20.28540039 140.40405273 C19.95091663 137.39369889 19.72699906 135.30186175 20.28540039 132.40405273 C22.28540039 130.15405273 22.28540039 130.15405273 24.28540039 128.40405273 C24.28540039 127.08405273 24.28540039 125.76405273 24.28540039 124.40405273 C12.92613906 119.95011744 8.27664571 121.43568986 -0.55834961 129.01342773 Z M-26.71459961 127.40405273 C-26.71459961 128.39405273 -26.71459961 129.38405273 -26.71459961 130.40405273 C-25.72459961 130.40405273 -24.73459961 130.40405273 -23.71459961 130.40405273 C-23.71459961 129.41405273 -23.71459961 128.42405273 -23.71459961 127.40405273 C-24.70459961 127.40405273 -25.69459961 127.40405273 -26.71459961 127.40405273 Z M78.28540039 127.40405273 C78.28540039 128.39405273 78.28540039 129.38405273 78.28540039 130.40405273 C79.27540039 130.40405273 80.26540039 130.40405273 81.28540039 130.40405273 C81.28540039 129.41405273 81.28540039 128.42405273 81.28540039 127.40405273 C80.29540039 127.40405273 79.30540039 127.40405273 78.28540039 127.40405273 Z M26.28540039 134.40405273 C26.28540039 135.72405273 26.28540039 137.04405273 26.28540039 138.40405273 C27.27540039 138.07405273 28.26540039 137.74405273 29.28540039 137.40405273 C28.95540039 136.41405273 28.62540039 135.42405273 28.28540039 134.40405273 C27.62540039 134.40405273 26.96540039 134.40405273 26.28540039 134.40405273 Z " fill="#000000" transform="translate(52.714599609375,3.595947265625)"/>
<path d="M0 0 C8.7069095 5.29917831 14.46788294 12.46651877 17.17578125 22.32421875 C17.9647842 31.17756577 18.13278995 39.61846379 13.17578125 47.32421875 C12.75167969 48.01902344 12.32757813 48.71382812 11.890625 49.4296875 C7.10150433 56.53999758 0.44372811 61.1059891 -7.82421875 63.32421875 C-19.25074389 64.35212792 -28.95827396 63.51574078 -38.13671875 56.07421875 C-44.41482161 50.1512409 -48.38614624 43.23979982 -49.16015625 34.5546875 C-49.33392039 26.77158148 -49.15008895 20.04885809 -44.82421875 13.32421875 C-44.40011719 12.62941406 -43.97601563 11.93460938 -43.5390625 11.21875 C-34.14700579 -2.72544562 -15.12567077 -7.24506919 0 0 Z M-37.01171875 13.44921875 C-41.68485623 19.22915194 -43.16868259 25.60352138 -42.76171875 32.94921875 C-41.62945788 41.32323141 -38.44796156 46.54352578 -31.89453125 51.8515625 C-26.41927338 55.74622706 -20.50179616 57.50910281 -13.82421875 57.32421875 C-5.32171216 55.77013522 1.38668705 52.11763789 6.84765625 45.36328125 C10.97472505 39.0270168 11.73621174 32.30630883 10.73828125 24.92578125 C9.0074442 16.92065991 4.78491147 12.02543025 -1.82421875 7.32421875 C-14.28851781 0.52551017 -27.26872478 3.30125926 -37.01171875 13.44921875 Z " fill="#000000" transform="translate(95.82421875,54.67578125)"/>
<path d="M0 0 C2.75390625 1.64453125 2.75390625 1.64453125 5.5625 3.8125 C6.49191406 4.52019531 7.42132813 5.22789063 8.37890625 5.95703125 C9.24386719 6.63121094 10.10882813 7.30539063 11 8 C11.69802734 8.42861328 12.39605469 8.85722656 13.11523438 9.29882812 C15.63257772 11.57095875 15.60249691 12.91608628 15.77734375 16.26171875 C16.48856365 32.88146401 16.48856365 32.88146401 12.7109375 38.2578125 C9.86783182 40.27327556 7.21301223 41.66883299 4 43 C3.17886719 43.57105469 2.35773438 44.14210937 1.51171875 44.73046875 C-1.8643376 46.43687359 -3.38987962 46.04362041 -7 45 C-12.57434801 42.79771476 -17.68486466 40.16868063 -21 35 C-23.31064023 27.34730372 -23.17275959 18.67640063 -21 11 C-17.92678347 6.73565425 -14.78634201 4.98300539 -10 3 C-9.15824219 2.44957031 -8.31648438 1.89914063 -7.44921875 1.33203125 C-4.5769946 -0.23005557 -3.21914639 -0.54065787 0 0 Z M-12.58203125 12.18359375 C-16.09325089 16.27339886 -16.40018808 20.02485923 -16.2512207 25.18530273 C-15.8738833 28.72708125 -15.12939893 30.8377685 -12.90625 33.625 C-8.17176042 37.17517541 -8.17176042 37.17517541 -2.46875 37.78125 C2.21762398 36.29822026 5.8499231 34.92608749 9 31 C10.40674083 25.64071611 10.88494151 20.31312635 9 15 C5.834663 11.30198493 2.41513717 9.01531787 -2 7 C-6.12978395 7 -9.37696228 9.81683873 -12.58203125 12.18359375 Z " fill="#000000" transform="translate(83,62)"/>
</svg>
