<svg xmlns="http://www.w3.org/2000/svg" width="160" height="160" viewBox="0 0 160 160" version="1.1"><path d="" stroke="none" fill="#080404" fill-rule="evenodd"/><path d="M 42.298 31.257 C 21.836 45.691, 5.074 57.837, 5.048 58.250 C 5.021 58.663, 38.750 59, 80 59 C 121.250 59, 154.979 58.663, 154.953 58.250 C 154.908 57.527, 82.182 5.887, 80.385 5.302 C 79.898 5.144, 62.759 16.823, 42.298 31.257 M 10.673 63.660 C 10.303 64.030, 10 65.608, 10 67.167 L 10 70 80.063 70 L 150.127 70 149.813 66.750 L 149.500 63.500 80.423 63.243 C 42.431 63.102, 11.044 63.289, 10.673 63.660 M 15.410 75.375 C 15.102 76.176, 14.997 78.107, 15.175 79.666 L 15.500 82.500 24 82.500 L 32.500 82.500 32.500 78.500 L 32.500 74.500 24.234 74.209 C 17.726 73.980, 15.850 74.228, 15.410 75.375 M 127.410 75.375 C 127.102 76.176, 126.997 78.107, 127.175 79.666 L 127.500 82.500 136 82.500 L 144.500 82.500 144.500 78.500 L 144.500 74.500 136.234 74.209 C 129.726 73.980, 127.850 74.228, 127.410 75.375 M 69.324 86.381 C 60.411 89.293, 51.678 97.131, 47.662 105.824 C 44.557 112.544, 44.567 127.476, 47.680 134.217 C 50.734 140.830, 58.242 148.480, 64.875 151.738 C 69.822 154.167, 71.646 154.499, 80 154.496 C 88.341 154.492, 90.186 154.155, 95.126 151.732 C 101.760 148.478, 109.265 140.833, 112.320 134.217 C 115.443 127.455, 115.443 112.545, 112.320 105.783 C 109.280 99.199, 101.764 91.521, 95.233 88.325 C 88.602 85.082, 76.161 84.148, 69.324 86.381 M 18.712 87.622 C 18.320 88.013, 18 100.408, 18 115.167 L 18 142 24.016 142 L 30.032 142 29.766 114.750 L 29.500 87.500 24.462 87.205 C 21.690 87.043, 19.103 87.230, 18.712 87.622 M 130.712 87.622 C 130.320 88.013, 130 100.408, 130 115.167 L 130 142 136.016 142 L 142.032 142 141.766 114.750 L 141.500 87.500 136.462 87.205 C 133.690 87.043, 131.103 87.230, 130.712 87.622 M 72.827 99.151 C 72.617 100.606, 71.605 101.628, 70 102.004 C 68.625 102.326, 67.500 103.225, 67.500 104 C 67.500 104.775, 68.625 105.675, 70 106 C 72.286 106.540, 72.500 107.054, 72.500 112 C 72.500 116.946, 72.286 117.460, 70 118 C 68.625 118.325, 67.500 119.225, 67.500 120 C 67.500 120.775, 68.625 121.675, 70 122 C 72.286 122.540, 72.500 123.054, 72.500 128 C 72.500 132.946, 72.286 133.460, 70 134 C 68.625 134.325, 67.500 135.225, 67.500 136 C 67.500 136.775, 68.625 137.674, 70 137.996 C 71.605 138.372, 72.617 139.394, 72.827 140.849 C 73.252 143.796, 76.380 143.318, 76.820 140.240 C 77.281 137.004, 82.719 137.004, 83.180 140.240 C 83.356 141.472, 84.287 142.630, 85.250 142.813 C 86.591 143.069, 87 142.469, 87 140.248 C 87 138.465, 87.942 136.463, 89.448 135.049 C 92.815 131.885, 93.513 127.884, 91.455 123.547 C 89.878 120.223, 89.878 119.777, 91.455 116.453 C 93.513 112.116, 92.815 108.115, 89.448 104.951 C 87.942 103.537, 87 101.535, 87 99.752 C 87 97.531, 86.591 96.931, 85.250 97.187 C 84.287 97.370, 83.356 98.528, 83.180 99.760 C 82.935 101.484, 82.201 102, 80 102 C 77.799 102, 77.065 101.484, 76.820 99.760 C 76.380 96.682, 73.252 96.204, 72.827 99.151 M 77 112 L 77 118.115 81.150 117.807 C 84.309 117.573, 85.788 116.844, 87.345 114.750 L 89.391 112 87.345 109.250 C 85.788 107.156, 84.309 106.427, 81.150 106.193 L 77 105.885 77 112 M 77 128 L 77 134.115 81.150 133.807 C 84.309 133.573, 85.788 132.844, 87.345 130.750 L 89.391 128 87.345 125.250 C 85.788 123.156, 84.309 122.427, 81.150 122.193 L 77 121.885 77 128 M 6.250 146.662 C 5.549 146.945, 5 148.886, 5 151.083 L 5 155 32.723 155 L 60.445 155 55.473 150.545 L 50.500 146.090 29 146.124 C 17.175 146.143, 6.938 146.385, 6.250 146.662 M 104.527 150.545 L 99.555 155 127.277 155 L 155 155 155 151.107 C 155 148.480, 154.486 147.017, 153.418 146.607 C 152.548 146.273, 142.311 146.020, 130.668 146.045 L 109.500 146.090 104.527 150.545" stroke="none" fill="#040404" fill-rule="evenodd"/></svg>