<svg xmlns="http://www.w3.org/2000/svg" width="160" height="160" viewBox="0 0 160 160" version="1.1"><path d="" stroke="none" fill="#080404" fill-rule="evenodd"/><path d="M 103.892 3.449 C 83.023 9.205, 69.140 30.678, 72.733 51.648 C 75.920 70.256, 89.824 84.094, 108.557 87.303 C 133.732 91.615, 157.976 70.862, 157.976 45 C 157.976 17.225, 130.496 -3.887, 103.892 3.449 M 103.804 9.929 C 93.338 13.275, 85.927 20.235, 80.832 31.500 C 79.064 35.411, 78.566 38.351, 78.547 45 C 78.525 52.479, 78.899 54.299, 81.662 60.151 C 85.648 68.592, 91.408 74.352, 99.849 78.338 C 105.701 81.101, 107.521 81.475, 115 81.453 C 124.091 81.427, 129.444 79.707, 137.280 74.297 C 145.462 68.647, 152 55.641, 152 45.016 C 152 38.359, 148.652 28.396, 144.546 22.833 C 135.487 10.561, 118.578 5.205, 103.804 9.929 M 112.709 14.624 C 112.319 15.014, 111.984 16.496, 111.964 17.917 C 111.935 19.945, 111.033 20.930, 107.766 22.500 C 101.950 25.295, 99.500 29.016, 99.500 35.054 C 99.500 39.180, 99.978 40.435, 102.500 42.933 C 104.379 44.794, 107.369 46.332, 110.500 47.049 C 113.250 47.679, 117.180 48.616, 119.234 49.132 C 128.858 51.551, 125.335 63, 114.966 63 C 109.728 63, 108.013 61.669, 105.500 55.655 C 104.034 52.146, 103.667 51.905, 100.212 52.192 C 97.200 52.442, 96.438 52.938, 96.171 54.823 C 95.947 56.403, 96.426 57.306, 97.671 57.646 C 98.677 57.921, 100.692 60.092, 102.148 62.471 C 103.936 65.392, 105.950 67.214, 108.349 68.081 C 111.236 69.126, 111.957 69.940, 112.200 72.433 C 112.447 74.958, 112.942 75.500, 115 75.500 C 117.039 75.500, 117.560 74.947, 117.824 72.500 C 118.083 70.100, 118.982 69.100, 122.323 67.500 C 135.413 61.228, 132.745 44.446, 118.347 42.495 C 107.707 41.053, 104.142 38.553, 105.427 33.435 C 106.466 29.296, 109.887 27, 115.014 27 C 120.190 27, 123.001 29.175, 124.706 34.500 C 125.558 37.159, 126.112 37.500, 129.583 37.500 C 132.920 37.500, 133.549 37.156, 133.829 35.177 C 134.055 33.583, 133.577 32.702, 132.306 32.370 C 131.288 32.104, 129.565 30.224, 128.477 28.193 C 127.203 25.812, 125.016 23.789, 122.324 22.500 C 118.982 20.900, 118.083 19.901, 117.824 17.500 C 117.595 15.377, 116.903 14.415, 115.459 14.208 C 114.336 14.047, 113.099 14.235, 112.709 14.624 M 50.500 30.935 C 43.095 32.738, 36.182 38.888, 33.946 45.662 C 33.150 48.076, 32.214 48.956, 30.193 49.189 C 28.371 49.399, 27.405 50.163, 27.207 51.550 C 26.822 54.237, 33.522 63, 35.961 63 C 38.275 63, 45.284 53.714, 44.814 51.270 C 44.623 50.282, 43.286 49.294, 41.752 49.008 L 39.028 48.500 41.498 44.371 C 44.429 39.473, 49.066 37, 55.319 37 C 61.329 37, 63 36.239, 63 33.500 C 63 30.072, 58.141 29.075, 50.500 30.935 M 34.251 73.545 C 15.302 78.648, 2.024 95.728, 2.024 115 C 2.024 142.668, 29.099 163.674, 55.650 156.605 C 76.789 150.977, 90.900 129.557, 87.303 108.557 C 82.956 83.184, 58.469 67.024, 34.251 73.545 M 36.734 79.025 C 23.755 82.300, 13.192 92.372, 9.568 104.932 C 5.314 119.670, 11.215 136.547, 23.601 145.069 C 29.349 149.024, 38.537 152, 45 152 C 55.641 152, 68.643 145.467, 74.297 137.280 C 79.707 129.444, 81.427 124.091, 81.453 115 C 81.475 107.521, 81.101 105.701, 78.338 99.849 C 74.392 91.491, 68.590 85.639, 60.495 81.851 C 53.504 78.579, 43.309 77.367, 36.734 79.025 M 33.995 94.093 C 28.223 97.444, 22.938 100.649, 22.250 101.215 C 21.369 101.941, 21 106.005, 21 114.967 C 21 129.832, 19.919 128.141, 34.733 136.451 L 44.965 142.191 51.733 138.436 C 55.455 136.370, 60.862 133.183, 63.750 131.352 L 69 128.025 69 115.081 L 69 102.136 66.250 100.236 C 63.243 98.157, 45.500 88, 44.876 88 C 44.664 88, 39.767 90.742, 33.995 94.093 M 40 97.579 C 37.525 98.984, 34.439 100.821, 33.143 101.660 L 30.786 103.186 37.143 107.058 C 40.639 109.187, 44.029 110.945, 44.676 110.965 C 45.323 110.984, 48.831 109.272, 52.472 107.160 C 57.431 104.283, 58.766 103.069, 57.795 102.319 C 56.243 101.119, 45.417 94.995, 44.878 95.012 C 44.670 95.019, 42.475 96.174, 40 97.579 M 118.509 101.987 C 114.355 107.646, 114.280 110.253, 118.248 110.992 L 120.972 111.500 118.502 115.629 C 115.571 120.527, 110.934 123, 104.681 123 C 98.631 123, 97 123.762, 97 126.588 C 97 129.555, 100.154 130.504, 106.739 129.516 C 115.734 128.167, 123.505 122.061, 126.054 114.338 C 126.850 111.924, 127.786 111.044, 129.807 110.811 C 131.629 110.601, 132.595 109.837, 132.793 108.450 C 133.178 105.763, 126.478 97, 124.039 97 C 122.953 97, 120.637 99.089, 118.509 101.987 M 27 116.956 L 27 124.912 33.924 128.956 C 37.733 131.180, 41.126 133, 41.465 133 C 41.804 133, 41.950 129.310, 41.790 124.801 L 41.500 116.601 35 112.820 C 31.425 110.741, 28.163 109.030, 27.750 109.020 C 27.337 109.009, 27 112.580, 27 116.956 M 54.759 112.779 L 48.018 116.500 48.009 124.750 C 48.004 129.287, 48.337 132.983, 48.750 132.962 C 49.163 132.941, 52.352 131.224, 55.839 129.146 L 62.177 125.367 62.339 117.183 C 62.427 112.682, 62.275 109.012, 62 109.029 C 61.725 109.045, 58.466 110.732, 54.759 112.779" stroke="none" fill="#040404" fill-rule="evenodd"/></svg>