<svg xmlns="http://www.w3.org/2000/svg" width="160" height="160" viewBox="0 0 160 160" version="1.1"><path d="" stroke="none" fill="#080404" fill-rule="evenodd"/><path d="M 60.014 16.157 C 49.847 21.100, 41.192 25.674, 40.780 26.322 C 40.368 26.970, 40.024 34.813, 40.015 43.750 C 40.007 52.688, 39.790 60, 39.534 60 C 39.278 60, 37.558 59.280, 35.713 58.400 C 32.393 56.817, 32.263 56.848, 23.179 61.410 L 14 66.020 14 78.986 L 14 91.952 17.588 93.793 L 21.176 95.634 13.120 99.264 C 6.689 102.163, 4.932 103.421, 4.410 105.502 C 3.395 109.545, 4.704 115.169, 7.219 117.571 C 9.640 119.883, 77.671 153, 80 153 C 82.329 153, 150.360 119.883, 152.781 117.571 C 155.292 115.173, 156.605 109.546, 155.593 105.516 C 155.083 103.482, 153.334 102.190, 147.471 99.519 C 143.362 97.646, 140 95.875, 140 95.583 C 140 95.290, 141.350 94.353, 143 93.500 L 146 91.949 146 78.984 L 146 66.020 136.821 61.410 C 127.737 56.848, 127.607 56.817, 124.287 58.400 C 122.442 59.280, 120.722 60, 120.466 60 C 120.210 60, 119.993 52.688, 119.985 43.750 C 119.976 34.813, 119.633 26.972, 119.222 26.326 C 118.358 24.967, 81.284 6.958, 79.615 7.085 C 79.002 7.132, 70.182 11.215, 60.014 16.157 M 64.500 20.870 L 50.500 27.696 65.250 34.776 L 80 41.856 94.750 34.776 L 109.500 27.696 95.500 20.870 C 87.800 17.115, 80.825 14.043, 80 14.043 C 79.175 14.043, 72.200 17.115, 64.500 20.870 M 46 47.977 C 46 62.849, 46.018 62.965, 48.500 64.592 C 50.951 66.198, 51 66.482, 51 79 C 51 91.518, 50.951 91.802, 48.500 93.408 C 46.529 94.700, 46 95.885, 46 99.014 L 46 102.982 56.059 108.029 C 61.591 110.806, 68.566 114.160, 71.559 115.484 L 77 117.890 77 82.617 L 77 47.343 62.435 40.172 C 54.425 36.227, 47.450 33, 46.935 33 C 46.397 33, 46 39.350, 46 47.977 M 97.250 40.241 L 83 47.340 83 82.615 L 83 117.890 88.441 115.484 C 91.434 114.160, 98.409 110.806, 103.941 108.029 L 114 102.982 114 99.014 C 114 95.885, 113.471 94.700, 111.500 93.408 C 109.049 91.802, 109 91.518, 109 79 C 109 66.482, 109.049 66.198, 111.500 64.592 C 113.982 62.965, 114 62.849, 114 47.977 C 114 36.624, 113.697 33.017, 112.750 33.070 C 112.063 33.109, 105.088 36.336, 97.250 40.241 M 50.510 42.633 C 48.500 44.643, 48.371 59.240, 50.346 61.179 C 52.911 63.696, 69.760 71.306, 71.387 70.682 C 72.714 70.172, 73 68.380, 73 60.557 L 73 51.051 70.007 49.504 C 68.361 48.652, 63.640 46.418, 59.517 44.539 C 52.831 41.492, 51.857 41.286, 50.510 42.633 M 97.250 45.996 L 87 50.867 87 60.465 C 87 68.373, 87.284 70.172, 88.613 70.682 C 90.240 71.306, 107.089 63.696, 109.654 61.179 C 111.672 59.197, 111.496 44.639, 109.429 42.571 C 108.564 41.707, 107.777 41.028, 107.679 41.063 C 107.580 41.097, 102.888 43.317, 97.250 45.996 M 56.193 54.133 C 56.485 58.067, 56.752 58.376, 61.750 60.576 L 67 62.887 67 58.960 C 67 55.256, 66.718 54.891, 62.033 52.517 C 59.302 51.133, 56.801 50, 56.476 50 C 56.151 50, 56.023 51.860, 56.193 54.133 M 97.750 52.566 C 93.310 54.877, 93 55.295, 93 58.963 L 93 62.887 98.250 60.576 C 103.248 58.376, 103.515 58.067, 103.807 54.133 C 103.977 51.860, 103.752 50.021, 103.307 50.047 C 102.863 50.072, 100.362 51.206, 97.750 52.566 M 28.250 65.745 C 26.462 66.635, 25 67.663, 25 68.030 C 25 68.396, 26.718 69.471, 28.819 70.418 C 32.440 72.051, 32.828 72.050, 36.319 70.385 C 38.343 69.420, 40 68.346, 40 68 C 40 67.312, 33.373 63.961, 32.216 64.064 C 31.822 64.099, 30.038 64.856, 28.250 65.745 M 123.250 65.745 C 121.463 66.635, 120 67.663, 120 68.030 C 120 68.396, 121.718 69.471, 123.819 70.418 C 127.440 72.051, 127.828 72.050, 131.319 70.385 C 133.343 69.420, 135 68.346, 135 68 C 135 67.312, 128.373 63.961, 127.216 64.064 C 126.822 64.099, 125.037 64.856, 123.250 65.745 M 58.082 73.401 C 57.338 74.298, 57.024 77.987, 57.210 83.651 L 57.500 92.500 63 95.238 C 71.926 99.680, 72.500 99.243, 72.500 88 L 72.500 78.500 66.500 75.278 C 59.551 71.547, 59.610 71.560, 58.082 73.401 M 93.500 75.278 L 87.500 78.500 87.500 88 C 87.500 99.243, 88.074 99.680, 97 95.238 L 102.500 92.500 102.790 83.651 C 103.057 75.518, 102.236 71.934, 100.128 72.028 C 99.782 72.044, 96.800 73.506, 93.500 75.278 M 20 80.814 L 20 88.601 24.500 90.788 L 29 92.974 29 85.186 L 29 77.399 24.500 75.212 L 20 73.026 20 80.814 M 40.250 75.259 L 36 77.394 36 85.184 L 36 92.974 40.500 90.788 L 45 88.601 45 80.801 C 45 76.510, 44.888 73.028, 44.750 73.062 C 44.612 73.096, 42.587 74.085, 40.250 75.259 M 115 80.814 L 115 88.601 119.500 90.788 L 124 92.974 124 85.186 L 124 77.399 119.500 75.212 L 115 73.026 115 80.814 M 135.250 75.259 L 131 77.394 131 85.184 L 131 92.974 135.500 90.788 L 140 88.601 140 80.801 C 140 76.510, 139.887 73.028, 139.750 73.062 C 139.613 73.096, 137.588 74.085, 135.250 75.259 M 63 84.927 C 63 87.167, 63.188 89, 63.418 89 C 63.648 89, 64.577 89.284, 65.482 89.632 C 66.881 90.168, 67.081 89.607, 66.814 85.890 C 66.583 82.674, 66.037 81.429, 64.750 81.185 C 63.315 80.913, 63 81.588, 63 84.927 M 93.667 81.667 C 93.300 82.033, 93 84.106, 93 86.274 C 93 89.456, 93.304 90.097, 94.582 89.607 C 95.452 89.273, 96.352 89, 96.582 89 C 96.812 89, 97 87.200, 97 85 C 97 81.229, 95.552 79.781, 93.667 81.667 M 37.340 98.769 C 36.702 99.174, 36.027 100.855, 35.840 102.503 C 35.546 105.091, 35.090 105.500, 32.500 105.500 C 29.838 105.500, 29.464 105.129, 29.183 102.204 C 28.907 99.327, 28.588 98.994, 26.683 99.583 C 23.571 100.547, 14.734 105.067, 15.151 105.483 C 15.343 105.674, 30.012 112.821, 47.750 121.365 L 80 136.898 112.250 121.365 C 129.988 112.821, 144.658 105.674, 144.851 105.481 C 145.293 105.041, 133.401 99, 132.092 99 C 131.561 99, 130.986 100.463, 130.813 102.250 C 130.536 105.125, 130.154 105.500, 127.500 105.500 C 124.910 105.500, 124.454 105.091, 124.160 102.503 C 123.845 99.729, 122.571 98.052, 120.750 98.015 C 120.338 98.007, 119.993 99.688, 119.985 101.750 C 119.976 103.813, 119.639 106.012, 119.235 106.637 C 118.831 107.262, 109.838 111.944, 99.250 117.042 L 80 126.310 60.750 117.042 C 50.162 111.944, 41.169 107.262, 40.765 106.637 C 40.361 106.012, 40.024 103.813, 40.015 101.750 C 40 97.981, 39.483 97.405, 37.340 98.769 M 11 112.331 C 11 113.090, 24.648 120.235, 42.750 128.953 C 80.084 146.933, 77.297 145.732, 76.851 143.648 C 76.629 142.606, 64.782 136.329, 44.500 126.508 C 26.900 117.985, 12.162 111.009, 11.750 111.006 C 11.338 111.003, 11 111.599, 11 112.331 M 115.500 126.508 C 95.218 136.329, 83.371 142.606, 83.149 143.648 C 82.703 145.732, 79.916 146.933, 117.250 128.953 C 135.352 120.235, 149 113.090, 149 112.331 C 149 111.599, 148.662 111.003, 148.250 111.006 C 147.838 111.009, 133.100 117.985, 115.500 126.508" stroke="none" fill="#040404" fill-rule="evenodd"/></svg>