<svg xmlns="http://www.w3.org/2000/svg" width="160" height="160" viewBox="0 0 160 160" version="1.1"><path d="" stroke="none" fill="#080404" fill-rule="evenodd"/><path d="M 74.712 4.012 C 70.094 7.644, 70.312 14.367, 75.159 17.807 C 76.797 18.969, 77 20.654, 77 33.057 L 77 47 74.500 47 C 72.088 47, 72 46.770, 72 40.457 C 72 34.113, 71.867 33.771, 67.623 29.207 C 63.892 25.195, 63.317 24.025, 63.731 21.282 C 64.126 18.671, 63.645 17.491, 61.186 15.032 C 57.428 11.274, 53.228 11.039, 49.356 14.370 C 43.546 19.367, 47.248 29, 54.978 29 C 57.771 29, 59.345 29.760, 61.804 32.298 C 64.640 35.223, 65 36.238, 65 41.298 L 65 47 59.465 47 C 56.152 47, 52.981 46.378, 51.566 45.452 C 49.556 44.134, 49.282 43.316, 49.730 39.973 C 50.198 36.489, 49.883 35.693, 46.953 32.957 C 42.412 28.714, 38.245 26.722, 35.404 27.435 C 33.236 27.979, 15.053 50.853, 6.557 63.723 C 2.991 69.126, 3.589 71.710, 9.533 76.580 C 14.094 80.318, 17.146 81.042, 21.822 79.497 C 23.778 78.850, 24.908 79.543, 28.996 83.898 C 33.808 89.023, 33.844 89.111, 33.294 94.445 C 32.836 98.874, 33.108 100.343, 34.830 102.762 L 36.923 105.700 34.157 108.350 C 30.374 111.974, 24.025 112.040, 19.818 108.500 C 15.759 105.085, 11.614 105.232, 7.923 108.923 C 4.803 112.043, 4.288 114.794, 6.163 118.316 C 7.940 121.652, 10.143 122.933, 14.161 122.968 C 17.023 122.993, 18.373 122.345, 20.347 120 C 22.623 117.294, 23.446 117, 28.739 117 C 34.114 117, 34.888 116.710, 37.942 113.560 L 41.276 110.120 43.081 112.310 C 44.869 114.481, 44.815 114.570, 36.692 122.791 C 30.927 128.626, 27.961 130.944, 26.682 130.617 C 21.194 129.212, 15.251 135.315, 16.513 141.061 C 18.722 151.116, 33.229 149.484, 33.488 139.151 C 33.580 135.491, 34.414 134.123, 40.937 126.934 L 48.283 118.838 50.346 120.901 L 52.409 122.964 49.704 125.787 C 47.357 128.237, 47 129.431, 47 134.836 C 47 139.515, 46.618 141.209, 45.463 141.653 C 43.555 142.385, 41 147.180, 41 150.027 C 41 151.197, 42.315 153.469, 43.923 155.077 C 48.713 159.867, 54.987 158.668, 57.578 152.467 C 59.185 148.622, 58.425 145.577, 55.115 142.595 C 52.480 140.222, 52.165 132.580, 54.591 129.899 C 56.108 128.223, 56.331 128.231, 59.341 130.067 C 63.241 132.445, 66.336 132.470, 71.464 130.167 C 75.406 128.397, 75.440 128.400, 77.464 130.727 C 78.584 132.014, 81.075 133.314, 83 133.615 C 86.638 134.184, 87.889 133.532, 96.584 126.527 L 100.275 123.553 103.637 127.443 C 106.421 130.663, 107 132.139, 107 136.012 C 107 139.507, 106.465 141.172, 104.885 142.595 C 101.575 145.577, 100.815 148.622, 102.422 152.467 C 105.013 158.668, 111.287 159.867, 116.077 155.077 C 117.685 153.469, 119 151.197, 119 150.027 C 119 147.180, 116.445 142.385, 114.537 141.653 C 113.381 141.209, 113 139.513, 113 134.819 C 113 128.828, 112.830 128.402, 108.785 124.281 L 104.570 119.986 106.638 117.918 L 108.706 115.849 117.554 125.306 C 125.702 134.015, 126.411 135.100, 126.509 139.018 C 126.592 142.342, 127.217 143.790, 129.364 145.636 C 136.646 151.901, 147.006 143.714, 142.594 135.181 C 140.982 132.064, 136.402 129.821, 133.303 130.631 C 131.990 130.974, 128.994 128.580, 122.735 122.184 C 117.931 117.274, 114 112.805, 114 112.251 C 114 111.698, 114.696 110.667, 115.547 109.961 C 116.858 108.873, 117.742 109.312, 121.335 112.838 C 125.322 116.751, 125.921 117, 131.352 117 C 136.543 117, 137.385 117.304, 139.653 120 C 144.907 126.243, 155 122.290, 155 113.989 C 155 112.810, 153.685 110.531, 152.077 108.923 C 148.386 105.232, 144.241 105.085, 140.182 108.500 C 137.998 110.338, 136.046 111, 132.809 111 C 129.024 111, 127.903 110.473, 124.826 107.250 C 122.279 104.583, 121.099 102.313, 120.737 99.391 C 120.242 95.391, 120.438 95.061, 128.099 87.020 C 134.836 79.950, 136.297 78.867, 138.235 79.512 C 142.845 81.044, 145.920 80.307, 150.467 76.580 C 156.411 71.710, 157.009 69.126, 153.443 63.723 C 144.947 50.853, 126.764 27.979, 124.596 27.435 C 121.755 26.722, 117.588 28.714, 113.047 32.957 C 110.117 35.693, 109.802 36.489, 110.270 39.973 C 110.718 43.316, 110.444 44.134, 108.434 45.452 C 107.019 46.378, 103.848 47, 100.535 47 L 95 47 95 41.196 C 95 35.944, 95.313 35.089, 98.298 32.196 C 100.741 29.828, 102.510 29, 105.123 29 C 112.755 29, 116.406 19.326, 110.644 14.370 C 106.772 11.039, 102.572 11.274, 98.814 15.032 C 96.355 17.491, 95.874 18.671, 96.269 21.282 C 96.683 24.025, 96.108 25.195, 92.377 29.207 C 88.133 33.771, 88 34.113, 88 40.457 C 88 46.770, 87.912 47, 85.500 47 L 83 47 83 33.057 C 83 20.654, 83.203 18.969, 84.841 17.807 C 89.688 14.367, 89.906 7.644, 85.288 4.012 C 82.027 1.447, 77.973 1.447, 74.712 4.012 M 78.036 9.456 C 77.372 10.257, 77.118 11.382, 77.473 11.956 C 78.307 13.306, 81.693 13.306, 82.527 11.956 C 83.190 10.883, 81.348 8, 80 8 C 79.585 8, 78.701 8.655, 78.036 9.456 M 53.278 19.122 C 51.742 20.658, 52.811 23, 55.048 23 C 57.305 23, 58.204 21.695, 57.396 19.590 C 56.684 17.734, 54.872 17.528, 53.278 19.122 M 102.604 19.590 C 101.796 21.695, 102.695 23, 104.952 23 C 107.189 23, 108.258 20.658, 106.722 19.122 C 105.128 17.528, 103.316 17.734, 102.604 19.590 M 23.152 51.162 L 9.803 69.268 12.652 71.598 C 14.218 72.880, 16.175 73.926, 17 73.923 C 17.825 73.920, 20.640 71.023, 23.255 67.484 C 25.870 63.945, 31.703 56.026, 36.218 49.885 L 44.427 38.720 41.001 35.860 C 39.117 34.287, 37.334 33.013, 37.038 33.029 C 36.742 33.044, 30.493 41.205, 23.152 51.162 M 118.999 35.860 L 115.573 38.720 123.782 49.885 C 128.297 56.026, 134.130 63.945, 136.745 67.484 C 139.360 71.023, 142.175 73.920, 143 73.923 C 143.825 73.926, 145.782 72.880, 147.348 71.598 L 150.197 69.268 136.848 51.162 C 129.507 41.205, 123.258 33.044, 122.962 33.029 C 122.666 33.013, 120.883 34.287, 118.999 35.860 M 35.342 61.249 L 26.285 73.497 28.939 75.499 C 30.398 76.599, 33.179 79.251, 35.119 81.391 L 38.646 85.281 45.573 77.115 C 53.054 68.295, 59.671 64, 65.780 64 C 70.395 64, 85.309 67.890, 86.227 69.333 C 86.635 69.975, 86.976 71.716, 86.985 73.203 C 87.008 77.260, 89.058 80.978, 92.155 82.580 C 94.892 83.995, 94.931 83.971, 95.920 80.255 C 98.846 69.261, 98.748 68.700, 92.485 60.524 L 86.723 53 69.111 52.978 C 53.172 52.958, 51.263 52.770, 49 51 C 47.625 49.924, 46.027 49.034, 45.449 49.022 C 44.872 49.010, 40.323 54.512, 35.342 61.249 M 111 50.985 C 109.082 52.497, 106.930 52.961, 101.750 52.978 C 98.037 52.990, 95 53.235, 95 53.521 C 95 53.808, 97.250 56.907, 100.001 60.407 L 105.002 66.770 102.980 76.635 C 100.114 90.623, 100.436 90, 96.080 90 C 89.383 90, 81 82.195, 81 75.960 C 81 73.394, 80.548 73.105, 74.061 71.515 C 66.835 69.744, 62.349 70.070, 58.407 72.653 C 57.240 73.417, 52.396 78.501, 47.643 83.949 C 39.013 93.841, 37.491 97.091, 40.214 99.814 C 41.166 100.766, 43.090 99.376, 49.127 93.374 C 54.413 88.119, 57.324 85.910, 58.413 86.328 C 61.359 87.459, 60.029 90.237, 53 97.637 C 49.150 101.690, 46 105.400, 46 105.881 C 46 106.362, 46.700 107.336, 47.556 108.047 C 48.889 109.153, 50.181 108.277, 56.568 101.932 C 62.723 95.818, 64.317 94.710, 65.703 95.584 C 66.626 96.167, 67.561 97.183, 67.781 97.843 C 68.001 98.503, 64.760 102.559, 60.579 106.856 C 52.989 114.655, 52.980 114.672, 55.037 116.533 C 57.076 118.379, 57.169 118.322, 63.929 111.076 C 70.701 103.817, 72.371 103.056, 74.416 106.297 C 75.290 107.683, 74.182 109.277, 68.068 115.432 C 61.723 121.819, 60.847 123.111, 61.953 124.444 C 62.664 125.300, 63.880 126, 64.656 126 C 66.680 126, 76 121.135, 76 120.079 C 76 119.336, 97.740 100.033, 105.876 93.550 C 107.238 92.465, 109.982 91.559, 112.066 91.507 C 115.382 91.424, 116.524 90.620, 122.088 84.456 C 125.541 80.630, 129.573 76.597, 131.047 75.494 L 133.727 73.488 124.841 61.494 C 119.953 54.897, 115.402 49.391, 114.727 49.258 C 114.052 49.124, 112.375 49.902, 111 50.985 M 97.200 108.933 C 80.662 123.188, 80.268 123.617, 81.667 125.834 C 82.245 126.750, 83.458 127.500, 84.362 127.500 C 86.601 127.500, 114.998 102.892, 114.999 100.950 C 115 99.315, 113.138 97, 111.822 97 C 111.394 97, 104.814 102.370, 97.200 108.933 M 11.604 113.590 C 10.796 115.695, 11.695 117, 13.952 117 C 16.189 117, 17.258 114.658, 15.722 113.122 C 14.128 111.528, 12.316 111.734, 11.604 113.590 M 144.278 113.122 C 142.742 114.658, 143.811 117, 146.048 117 C 148.305 117, 149.204 115.695, 148.396 113.590 C 147.684 111.734, 145.872 111.528, 144.278 113.122 M 22.441 138.096 C 22.068 138.699, 22.492 139.920, 23.382 140.810 C 24.873 142.301, 25.127 142.301, 26.618 140.810 C 28.508 138.920, 27.693 137, 25 137 C 23.965 137, 22.813 137.493, 22.441 138.096 M 132.441 138.096 C 132.068 138.699, 132.492 139.920, 133.382 140.810 C 134.873 142.301, 135.127 142.301, 136.618 140.810 C 138.508 138.920, 137.693 137, 135 137 C 133.965 137, 132.813 137.493, 132.441 138.096 M 47.336 148.567 C 47.005 149.429, 47.214 150.614, 47.800 151.200 C 49.355 152.755, 52 151.390, 52 149.031 C 52 146.565, 48.247 146.192, 47.336 148.567 M 108.170 149.170 C 108.390 150.723, 109.167 151.500, 110.500 151.500 C 113.478 151.500, 113.181 147.596, 110.170 147.170 C 108.231 146.895, 107.895 147.231, 108.170 149.170" stroke="none" fill="#040404" fill-rule="evenodd"/></svg>