<svg xmlns="http://www.w3.org/2000/svg" width="160" height="160" viewBox="0 0 160 160" version="1.1"><path d="" stroke="none" fill="#080404" fill-rule="evenodd"/><path d="M 83.171 5.294 C 81.962 6.750, 78 23.677, 78 27.382 C 78 30.234, 80.394 31.463, 82.278 29.579 C 83.013 28.844, 84.639 23.442, 85.891 17.575 C 87.688 9.151, 87.913 6.601, 86.961 5.453 C 85.473 3.660, 84.558 3.622, 83.171 5.294 M 132.357 5.001 C 129.602 6.101, 127 9.825, 127 12.667 C 127 13.889, 128.054 16.114, 129.342 17.611 C 132.555 21.346, 137.445 21.346, 140.658 17.611 C 143.606 14.184, 143.637 10.813, 140.750 7.637 C 138.081 4.701, 135.298 3.827, 132.357 5.001 M 133 12.500 C 133 13.333, 133.889 14, 135 14 C 136.111 14, 137 13.333, 137 12.500 C 137 11.667, 136.111 11, 135 11 C 133.889 11, 133 11.667, 133 12.500 M 97.500 17.901 C 94.461 19.239, 91.057 23.315, 90.051 26.821 C 88.813 31.140, 90.340 35.993, 94.059 39.557 C 96.680 42.067, 97.920 42.500, 102.500 42.500 C 107.080 42.500, 108.320 42.067, 110.941 39.557 C 116.747 33.994, 116.806 26.063, 111.082 20.579 C 107.934 17.563, 101.257 16.246, 97.500 17.901 M 98.223 24.557 C 95.098 26.746, 95.098 33.254, 98.223 35.443 C 103.296 38.997, 109 36.116, 109 30 C 109 25.789, 106.410 23, 102.500 23 C 101.370 23, 99.445 23.701, 98.223 24.557 M 142.183 35.807 L 139.088 41.614 142.357 47.057 C 144.454 50.551, 146.296 52.500, 147.500 52.500 C 148.704 52.500, 150.546 50.551, 152.643 47.057 L 155.912 41.614 152.817 35.807 C 150.469 31.403, 149.185 30, 147.500 30 C 145.815 30, 144.531 31.403, 142.183 35.807 M 76.709 35.319 C 75.891 35.968, 74.932 38.163, 74.576 40.196 C 74.042 43.247, 74.274 44.076, 75.906 44.950 C 77.516 45.811, 78.170 45.595, 79.441 43.781 C 82.727 39.090, 80.528 32.282, 76.709 35.319 M 122.416 38.357 C 122.100 39.181, 121.990 40.900, 122.171 42.177 C 122.415 43.900, 123.145 44.500, 125 44.500 C 127.190 44.500, 127.500 44.067, 127.500 41 C 127.500 38.130, 127.094 37.442, 125.246 37.180 C 123.931 36.993, 122.751 37.484, 122.416 38.357 M 146.559 39.905 C 146.192 40.499, 146.299 41.712, 146.797 42.602 C 147.615 44.063, 147.768 44.048, 148.384 42.442 C 149.165 40.406, 147.597 38.225, 146.559 39.905 M 53.500 47.065 C 44.700 50.243, 34.350 53.802, 30.500 54.974 C 16.804 59.143, 9.205 67.184, 8.005 78.775 C 7.623 82.474, 7.017 86.175, 6.659 87 C 5.782 89.022, 11.663 99.099, 14.090 99.734 C 16.254 100.300, 24.589 110.880, 26.587 115.598 C 28.405 119.889, 26.257 127.804, 21.941 132.720 C 17.558 137.712, 14.815 144.238, 15.191 148.777 C 15.457 151.987, 15.841 152.500, 17.972 152.500 C 20.093 152.500, 20.546 151.907, 21.157 148.326 C 21.996 143.412, 24.555 138.108, 26.436 137.386 C 27.168 137.105, 30.009 138.255, 32.749 139.940 C 43.998 146.862, 63.030 153.970, 66.624 152.591 C 69.177 151.611, 68.024 148.440, 63.500 144 C 58.622 139.213, 58.349 138.043, 60.350 130.500 C 61.951 124.468, 61.580 123, 58.455 123 C 55.959 123, 55.954 123.011, 52.927 135.281 C 51.878 139.532, 51.952 140.289, 53.594 142.104 C 55.428 144.130, 55.403 144.130, 50.070 142.028 C 44.814 139.956, 31 132.206, 31 131.329 C 31 128.499, 33.763 120.952, 35.513 119 C 39.242 114.843, 40.027 112.410, 40.352 104.010 C 40.700 94.980, 39.523 92.568, 35.878 94.844 C 33.863 96.102, 32 95.644, 32 93.890 C 32 93.344, 33.575 92.240, 35.500 91.436 C 39.508 89.761, 39.545 89.688, 37.429 87.571 C 35.191 85.334, 31.896 85.625, 28.144 88.394 C 23.809 91.592, 15.993 93.607, 14.884 91.812 C 14.444 91.100, 14.402 90.230, 14.792 89.879 C 15.181 89.528, 25.303 86.413, 37.285 82.955 C 52.863 78.460, 59.376 76.976, 60.147 77.747 C 61.938 79.538, 60.407 80.595, 53.289 82.483 C 44.594 84.790, 43 85.641, 43 87.976 C 43 90.763, 44.368 91.188, 49.320 89.941 C 53.223 88.958, 54.248 89.086, 58.049 91.025 C 61.291 92.679, 63.385 93.082, 66.512 92.653 C 69.383 92.260, 70.696 92.457, 70.761 93.292 C 70.813 93.956, 71.146 95.439, 71.502 96.587 C 72.031 98.298, 71.734 98.659, 69.855 98.587 C 66.942 98.476, 66.209 101.469, 68.523 104.026 C 70.900 106.652, 69.338 113.599, 66.438 113.300 C 65.372 113.191, 60.788 112.791, 56.250 112.413 L 48 111.725 48 114.295 C 48 117.288, 48.334 117.417, 60.265 119.028 C 72.404 120.666, 72.938 120.251, 76.382 106.510 C 77.846 100.664, 78.802 95.489, 78.506 95.010 C 78.210 94.530, 78.425 93.856, 78.984 93.510 C 79.543 93.165, 80 92.024, 80 90.976 C 80 89.928, 80.853 88.614, 81.895 88.056 C 85.729 86.004, 86.110 81.788, 83.323 72.263 C 80.594 62.933, 77.980 59, 74.512 59 C 72.517 59, 72.402 58.597, 72.804 53.036 C 73.293 46.272, 72.598 42.436, 70.759 41.753 C 70.066 41.496, 62.300 43.886, 53.500 47.065 M 115.614 45.529 C 112.564 48.579, 116.881 52.204, 120.962 50.020 C 123.533 48.645, 123.580 46.381, 121.066 45.035 C 118.450 43.635, 117.414 43.729, 115.614 45.529 M 128.750 45.080 C 126.407 46.445, 126.537 48.682, 129.038 50.020 C 133.119 52.204, 137.436 48.579, 134.386 45.529 C 132.620 43.762, 131.206 43.650, 128.750 45.080 M 52.500 54.036 C 45.350 56.755, 39.019 58.985, 38.432 58.990 C 37.844 58.996, 35.106 59.670, 32.348 60.489 C 21.743 63.639, 14.016 71.542, 14.005 79.250 C 14.002 81.313, 14.270 83, 14.601 83 C 14.931 83, 19.994 81.620, 25.851 79.933 C 51.185 72.636, 49.468 73.340, 51.295 69.508 C 53.027 65.875, 58.161 62.010, 61.265 62.004 C 63.632 61.999, 66.992 56.282, 66.996 52.250 C 66.998 50.462, 66.662 49.020, 66.250 49.045 C 65.838 49.070, 59.650 51.316, 52.500 54.036 M 122.416 51.357 C 122.100 52.181, 121.990 53.900, 122.171 55.177 C 122.415 56.900, 123.145 57.500, 125 57.500 C 127.190 57.500, 127.500 57.067, 127.500 54 C 127.500 51.130, 127.094 50.442, 125.246 50.180 C 123.931 49.993, 122.751 50.484, 122.416 51.357 M 95.571 60.571 C 94.410 61.733, 94 64.190, 94 70 C 94 80.322, 94.678 81, 105 81 C 115.322 81, 116 80.322, 116 70 C 116 59.678, 115.322 59, 105 59 C 99.190 59, 96.733 59.410, 95.571 60.571 M 65.617 66.987 C 58.576 69.236, 56.962 70.517, 61.180 70.507 C 64.437 70.500, 65.620 72.440, 67.456 80.799 C 68.106 83.761, 67.890 84.154, 64.832 85.567 L 61.500 87.106 64.782 86.571 C 66.588 86.278, 70.576 85.307, 73.646 84.414 C 79.098 82.830, 79.216 82.718, 78.716 79.646 C 78.434 77.916, 77.451 73.912, 76.531 70.750 C 74.630 64.216, 74.467 64.160, 65.617 66.987 M 101 70 L 101 74 105 74 L 109 74 109 70 L 109 66 105 66 L 101 66 101 70 M 133.951 73.576 C 131.595 77.192, 129.667 80.706, 129.667 81.385 C 129.667 83.937, 138.063 95, 140 95 C 141.937 95, 150.333 83.937, 150.333 81.385 C 150.333 78.919, 141.771 67, 140 67 C 138.927 67, 136.556 69.576, 133.951 73.576 M 137.792 78.775 C 136.250 81.386, 136.267 81.697, 138.076 84.025 L 140 86.500 141.924 84.025 C 143.733 81.697, 143.750 81.386, 142.208 78.775 C 141.307 77.249, 140.313 76, 140 76 C 139.687 76, 138.693 77.249, 137.792 78.775 M 90.655 85.488 C 88.475 87.668, 89.450 89.447, 94.753 92.960 C 98.236 95.267, 99.634 95.719, 100.658 94.869 C 103.283 92.690, 101.466 89.781, 94.863 85.591 C 92.466 84.070, 92.082 84.061, 90.655 85.488 M 110.035 93.934 C 108.635 96.550, 108.729 97.586, 110.529 99.386 C 113.579 102.436, 117.204 98.119, 115.020 94.038 C 113.645 91.467, 111.381 91.420, 110.035 93.934 M 22.720 97.613 C 22.383 97.951, 23.827 100.538, 25.929 103.363 C 28.032 106.189, 30.281 109.525, 30.926 110.778 C 32.675 114.171, 34 112.517, 34 106.941 C 34 103.151, 33.640 102, 32.455 102 C 31.605 102, 29.784 100.875, 28.409 99.500 C 25.963 97.054, 23.948 96.386, 22.720 97.613 M 103.750 100.080 C 101.407 101.445, 101.537 103.682, 104.038 105.020 C 108.119 107.204, 112.436 103.579, 109.386 100.529 C 107.620 98.762, 106.206 98.650, 103.750 100.080 M 115.614 100.529 C 112.564 103.579, 116.881 107.204, 120.962 105.020 C 123.533 103.645, 123.580 101.381, 121.066 100.035 C 118.450 98.635, 117.414 98.729, 115.614 100.529 M 110.529 105.614 C 108.729 107.414, 108.635 108.450, 110.035 111.066 C 111.381 113.580, 113.645 113.533, 115.020 110.962 C 117.204 106.881, 113.579 102.564, 110.529 105.614 M 124.657 112.451 C 123.835 114.594, 126.206 116.857, 139.762 126.871 C 151.458 135.509, 154.150 136.657, 155.354 133.520 C 156.116 131.535, 154.608 130.100, 141.291 120.135 C 129.325 111.182, 125.774 109.541, 124.657 112.451" stroke="none" fill="#040404" fill-rule="evenodd"/></svg>