<svg xmlns="http://www.w3.org/2000/svg" width="160" height="160" viewBox="0 0 160 160" version="1.1"><path d="" stroke="none" fill="#080404" fill-rule="evenodd"/><path d="M 41.816 22.282 C 16.284 36.354, 4.965 43.108, 4.580 44.500 C 4.276 45.600, 4.021 52.430, 4.014 59.679 C 3.999 73.997, 4.681 76, 9.571 76 C 11.790 76, 12 76.396, 12 80.594 C 12 84.346, 12.366 85.283, 14 85.710 C 15.893 86.205, 16 87.074, 16 102 C 16 116.926, 15.893 117.795, 14 118.290 C 12.366 118.717, 12 119.654, 12 123.406 C 12 127.604, 11.790 128, 9.571 128 C 4.812 128, 4 130.132, 4 142.637 C 4 148.959, 4.466 155.002, 5.035 156.066 C 6.044 157.951, 7.931 158, 80 158 C 152.069 158, 153.956 157.951, 154.965 156.066 C 155.534 155.002, 156 148.959, 156 142.637 C 156 130.132, 155.188 128, 150.429 128 C 148.210 128, 148 127.604, 148 123.406 C 148 119.654, 147.634 118.717, 146 118.290 C 144.107 117.795, 144 116.926, 144 102 C 144 87.074, 144.107 86.205, 146 85.710 C 147.634 85.283, 148 84.346, 148 80.594 C 148 76.396, 148.210 76, 150.429 76 C 155.319 76, 156.001 73.997, 155.986 59.679 C 155.979 52.430, 155.726 45.600, 155.426 44.500 C 155.041 43.096, 143.781 36.463, 117.656 22.250 C 97.184 11.113, 79.999 2.014, 79.467 2.032 C 78.935 2.049, 61.992 11.161, 41.816 22.282 M 44.750 27.619 L 11 46.238 11 52.119 L 11 58 80 58 L 149 58 149 52.111 L 149 46.223 115.293 27.861 C 96.754 17.763, 80.891 9.387, 80.043 9.250 C 79.194 9.112, 63.313 17.378, 44.750 27.619 M 72 18.442 C 67.875 20.873, 63.922 23.375, 63.215 24.003 C 62.295 24.820, 62.010 27.885, 62.215 34.782 L 62.500 44.418 70.500 49.173 C 74.900 51.788, 79.175 53.928, 80 53.928 C 80.825 53.928, 85.100 51.788, 89.500 49.173 L 97.500 44.418 97.754 34.959 C 97.894 29.757, 97.669 25.028, 97.254 24.452 C 96.545 23.466, 80.800 13.987, 79.912 14.011 C 79.685 14.017, 76.125 16.011, 72 18.442 M 75.552 23.400 L 71.605 25.789 75.052 27.891 C 76.949 29.047, 79.175 29.993, 80 29.993 C 80.825 29.993, 83.051 29.047, 84.948 27.891 L 88.395 25.789 84.448 23.400 C 82.276 22.085, 80.275 21.010, 80 21.010 C 79.725 21.010, 77.724 22.085, 75.552 23.400 M 68 35.813 C 68 40.727, 68.093 40.881, 72.551 43.373 L 77.102 45.916 76.801 40.860 C 76.517 36.088, 76.262 35.665, 72.250 33.301 L 68 30.797 68 35.813 M 87.250 33.566 C 83.180 36.006, 83 36.320, 83 40.986 L 83 45.859 87.500 43.344 C 91.882 40.895, 92 40.700, 92 35.915 C 92 33.212, 91.888 31.004, 91.750 31.009 C 91.612 31.015, 89.588 32.165, 87.250 33.566 M 11 66.500 L 11 69 80 69 L 149 69 149 66.500 L 149 64 80 64 L 11 64 11 66.500 M 18 78 C 18 79.852, 18.667 80, 27 80 C 35.333 80, 36 79.852, 36 78 C 36 76.148, 35.333 76, 27 76 C 18.667 76, 18 76.148, 18 78 M 42 79.992 C 42 82.900, 41.457 84.322, 40 85.232 C 38.138 86.395, 38 87.564, 38 102.124 C 38 116.926, 38.108 117.795, 40 118.290 C 41.634 118.717, 42 119.654, 42 123.406 C 42 127.640, 42.196 128, 44.500 128 C 46.804 128, 47 127.640, 47 123.406 C 47 119.654, 47.366 118.717, 49 118.290 C 50.892 117.795, 51 116.926, 51 102.124 C 51 87.564, 50.862 86.395, 49 85.232 C 47.543 84.322, 47 82.900, 47 79.992 C 47 76.401, 46.749 76, 44.500 76 C 42.251 76, 42 76.401, 42 79.992 M 53 78 C 53 79.852, 53.667 80, 62 80 C 70.333 80, 71 79.852, 71 78 C 71 76.148, 70.333 76, 62 76 C 53.667 76, 53 76.148, 53 78 M 78 79.500 C 78 81.667, 77.238 83.762, 76 85 C 74.178 86.822, 74 88.333, 74 102 C 74 115.667, 74.178 117.178, 76 119 C 77.238 120.238, 78 122.333, 78 124.500 C 78 127.333, 78.381 128, 80 128 C 81.619 128, 82 127.333, 82 124.500 C 82 122.333, 82.762 120.238, 84 119 C 85.822 117.178, 86 115.667, 86 102 C 86 88.333, 85.822 86.822, 84 85 C 82.762 83.762, 82 81.667, 82 79.500 C 82 76.667, 81.619 76, 80 76 C 78.381 76, 78 76.667, 78 79.500 M 89 78 C 89 79.852, 89.667 80, 98 80 C 106.333 80, 107 79.852, 107 78 C 107 76.148, 106.333 76, 98 76 C 89.667 76, 89 76.148, 89 78 M 113 79.992 C 113 82.900, 112.457 84.322, 111 85.232 C 109.138 86.395, 109 87.564, 109 102.124 C 109 116.926, 109.108 117.795, 111 118.290 C 112.634 118.717, 113 119.654, 113 123.406 C 113 127.640, 113.196 128, 115.500 128 C 117.804 128, 118 127.640, 118 123.406 C 118 119.654, 118.366 118.717, 120 118.290 C 121.892 117.795, 122 116.926, 122 102.124 C 122 87.564, 121.862 86.395, 120 85.232 C 118.543 84.322, 118 82.900, 118 79.992 C 118 76.401, 117.749 76, 115.500 76 C 113.251 76, 113 76.401, 113 79.992 M 124 78 C 124 79.852, 124.667 80, 133 80 C 141.333 80, 142 79.852, 142 78 C 142 76.148, 141.333 76, 133 76 C 124.667 76, 124 76.148, 124 78 M 22 102 L 22 118 27 118 L 32 118 32 102 L 32 86 27 86 L 22 86 22 102 M 57 102 L 57 118 62 118 L 67 118 67 102 L 67 86 62 86 L 57 86 57 102 M 93 102 L 93 118 98 118 L 103 118 103 102 L 103 86 98 86 L 93 86 93 102 M 128 102 L 128 118 133 118 L 138 118 138 102 L 138 86 133 86 L 128 86 128 102 M 18 126 C 18 127.852, 18.667 128, 27 128 C 35.333 128, 36 127.852, 36 126 C 36 124.148, 35.333 124, 27 124 C 18.667 124, 18 124.148, 18 126 M 53 126 C 53 127.852, 53.667 128, 62 128 C 70.333 128, 71 127.852, 71 126 C 71 124.148, 70.333 124, 62 124 C 53.667 124, 53 124.148, 53 126 M 89 126 C 89 127.852, 89.667 128, 98 128 C 106.333 128, 107 127.852, 107 126 C 107 124.148, 106.333 124, 98 124 C 89.667 124, 89 124.148, 89 126 M 124 126 C 124 127.852, 124.667 128, 133 128 C 141.333 128, 142 127.852, 142 126 C 142 124.148, 141.333 124, 133 124 C 124.667 124, 124 124.148, 124 126 M 11 137 L 11 140 80 140 L 149 140 149 137 L 149 134 80 134 L 11 134 11 137 M 11 149 L 11 152 80 152 L 149 152 149 149 L 149 146 80 146 L 11 146 11 149" stroke="none" fill="#040404" fill-rule="evenodd"/></svg>