<svg xmlns="http://www.w3.org/2000/svg" width="160" height="160" viewBox="0 0 160 160" version="1.1"><path d="" stroke="none" fill="#080404" fill-rule="evenodd"/><path d="M 110.529 5.614 C 108.729 7.414, 108.635 8.450, 110.035 11.066 C 111.381 13.580, 113.645 13.533, 115.020 10.962 C 117.204 6.881, 113.579 2.564, 110.529 5.614 M 48.866 14.440 C 42.291 19.500, 40.425 20.517, 40.148 19.190 C 39.410 15.645, 34.909 11.053, 31.191 10.052 C 23.317 7.931, 15.887 12.791, 14.506 20.965 C 14.106 23.331, 13.270 25, 12.485 25 C 10.537 25, 7 29.887, 7 32.579 C 7 33.849, 8.054 36.114, 9.342 37.611 C 12.484 41.264, 17.447 41.344, 20.504 37.791 C 22.219 35.796, 23.564 35.271, 26.745 35.355 C 30.624 35.456, 30.819 35.617, 31.285 39.089 C 32.283 46.527, 35.325 50.670, 48 61.853 C 50.174 63.772, 50.927 64.952, 49.986 64.971 C 48.191 65.005, 22 90.983, 22 92.728 C 22 94.952, 25.821 96, 33.934 96 C 38.370 96, 42 96.275, 42 96.611 C 42 96.947, 39.750 100.947, 37 105.500 C 34.250 110.053, 32 114.262, 32 114.854 C 32 115.446, 33.353 117.472, 35.007 119.355 L 38.014 122.780 35.618 123.381 C 32.724 124.107, 27.193 130.174, 26.604 133.268 C 26.370 134.496, 25.781 138.803, 25.294 142.839 C 24.040 153.246, 24.181 153.361, 36.435 151.855 C 44.924 150.812, 46.803 150.234, 49.549 147.823 C 51.311 146.275, 53.311 143.663, 53.993 142.017 L 55.232 139.025 57.194 141.519 C 61.052 146.424, 62 146.356, 71.973 140.463 C 77.058 137.458, 81.378 135, 81.573 135 C 81.768 135, 82.056 139.387, 82.214 144.750 C 82.618 158.514, 83.149 158.420, 99.904 141.611 L 113.309 128.164 112.175 122.516 L 111.041 116.868 120.293 107.684 C 140.597 87.531, 152.313 62.967, 154.891 35.147 C 156.152 21.532, 156.174 21.557, 144.034 22.352 C 127.152 23.459, 108.208 29.347, 94.029 37.897 C 87.594 41.776, 87.545 41.788, 85.178 39.925 C 81.960 37.394, 76.741 36.546, 72.810 37.916 C 70.037 38.883, 68.524 38.665, 62.321 36.402 L 55.073 33.759 61.536 26.347 C 68.888 17.918, 69.718 14.627, 65.545 10.455 C 61.502 6.411, 58.303 7.176, 48.866 14.440 M 102.386 13.436 C 101.248 16.402, 102.785 18.147, 106.243 17.814 C 108.967 17.551, 109.500 17.091, 109.500 15 C 109.500 12.909, 108.967 12.449, 106.243 12.186 C 104 11.970, 102.799 12.359, 102.386 13.436 M 115.386 13.436 C 114.248 16.402, 115.785 18.147, 119.243 17.814 C 121.967 17.551, 122.500 17.091, 122.500 15 C 122.500 12.909, 121.967 12.449, 119.243 12.186 C 117 11.970, 115.799 12.359, 115.386 13.436 M 53.887 18.122 C 50.924 20.430, 48.282 22.503, 48.015 22.728 C 47.748 22.953, 48.648 24.009, 50.015 25.075 L 52.500 27.014 57.294 21.889 C 61.867 17.001, 62.644 15.048, 60.325 14.275 C 59.747 14.082, 56.850 15.813, 53.887 18.122 M 29.643 22.141 C 29.287 25.545, 29.219 28.553, 29.492 28.825 C 29.765 29.098, 30.890 28.504, 31.994 27.506 C 34.558 25.185, 34.639 19.888, 32.145 17.631 C 30.362 16.017, 30.265 16.192, 29.643 22.141 M 110.035 18.934 C 108.635 21.550, 108.729 22.586, 110.529 24.386 C 113.579 27.436, 117.204 23.119, 115.020 19.038 C 113.645 16.467, 111.381 16.420, 110.035 18.934 M 133.500 32 C 133.160 32.550, 133.809 33, 134.941 33 C 136.073 33, 137 32.550, 137 32 C 137 31.450, 136.352 31, 135.559 31 C 134.766 31, 133.840 31.450, 133.500 32 M 128 33 C 128 33.550, 128.450 34, 129 34 C 129.550 34, 130 33.550, 130 33 C 130 32.450, 129.550 32, 129 32 C 128.450 32, 128 32.450, 128 33 M 104.175 39.546 C 97.975 42.596, 92.657 45.729, 92.358 46.508 C 91.885 47.743, 103.394 64, 104.742 64 C 105.012 64, 104.995 63.089, 104.704 61.976 C 103.844 58.688, 105.766 53.598, 109.059 50.443 C 111.680 47.933, 112.920 47.500, 117.500 47.500 C 122.080 47.500, 123.320 47.933, 125.941 50.443 C 131.805 56.062, 131.805 63.938, 125.941 69.557 C 123.320 72.067, 122.080 72.500, 117.500 72.500 C 112.923 72.500, 111.679 72.067, 109.066 69.563 L 106 66.626 106 69.858 C 106 74.402, 102.204 78, 97.411 78 C 94.123 78, 92.752 77.041, 84.564 69.010 L 75.396 60.020 71.369 64.260 C 65.048 70.915, 62.111 75.198, 50.041 95.360 L 38.750 114.221 51.004 126.504 L 63.258 138.788 84.265 126.144 C 109.399 111.016, 120.020 101.815, 130.470 86.118 C 136.411 77.195, 143 63.875, 143 60.790 C 143 59.262, 117.974 34, 116.460 34 C 115.903 34, 110.375 36.496, 104.175 39.546 M 76.261 47.623 C 76.742 51.887, 77.545 53.011, 86.622 62.123 C 92.034 67.555, 97.048 72, 97.763 72 C 101.369 72, 99.785 68.339, 91.448 57.404 C 82.668 45.888, 79.801 43, 77.147 43 C 76.065 43, 75.860 44.068, 76.261 47.623 M 12.416 53.357 C 12.100 54.181, 11.990 55.900, 12.171 57.177 C 12.415 58.900, 13.145 59.500, 15 59.500 C 17.190 59.500, 17.500 59.067, 17.500 56 C 17.500 53.130, 17.094 52.442, 15.246 52.180 C 13.931 51.993, 12.751 52.484, 12.416 53.357 M 116.790 54.239 C 119.658 55.620, 119.257 58.390, 116.124 58.835 C 112.816 59.305, 111.317 57.553, 113.092 55.292 C 114.375 53.659, 114.345 53.621, 112.750 54.872 C 110.105 56.947, 110.396 63.464, 113.223 65.443 C 114.445 66.299, 116.370 67, 117.500 67 C 118.630 67, 120.555 66.299, 121.777 65.443 C 124.611 63.459, 124.752 60, 122 60 C 119.427 60, 119.180 56.015, 121.750 55.968 C 123.333 55.939, 123.315 55.797, 121.559 54.468 C 120.491 53.661, 118.466 53.030, 117.059 53.068 L 114.500 53.135 116.790 54.239 M 5.614 60.529 C 2.564 63.579, 6.881 67.204, 10.962 65.020 C 13.533 63.645, 13.580 61.381, 11.066 60.035 C 8.450 58.635, 7.414 58.729, 5.614 60.529 M 18.750 60.080 C 16.407 61.445, 16.537 63.682, 19.038 65.020 C 23.119 67.204, 27.436 63.579, 24.386 60.529 C 22.620 58.762, 21.206 58.650, 18.750 60.080 M 12.416 66.357 C 12.100 67.181, 11.990 68.900, 12.171 70.177 C 12.415 71.900, 13.145 72.500, 15 72.500 C 17.190 72.500, 17.500 72.067, 17.500 69 C 17.500 66.130, 17.094 65.442, 15.246 65.180 C 13.931 64.993, 12.751 65.484, 12.416 66.357 M 69.250 104.240 C 59.762 113.745, 52 122.024, 52 122.638 C 52 123.252, 52.704 124.339, 53.564 125.053 C 54.915 126.174, 57.506 123.978, 72.592 108.925 C 85.115 96.430, 89.977 90.937, 89.778 89.510 C 89.625 88.416, 88.825 87.394, 88 87.240 C 87.162 87.083, 78.884 94.589, 69.250 104.240 M 142.416 118.357 C 142.100 119.181, 141.990 120.900, 142.171 122.177 C 142.415 123.900, 143.145 124.500, 145 124.500 C 147.190 124.500, 147.500 124.067, 147.500 121 C 147.500 118.130, 147.094 117.442, 145.246 117.180 C 143.931 116.993, 142.751 117.484, 142.416 118.357 M 135.614 125.529 C 132.564 128.579, 136.881 132.204, 140.962 130.020 C 143.533 128.645, 143.580 126.381, 141.066 125.035 C 138.450 123.635, 137.414 123.729, 135.614 125.529 M 148.750 125.080 C 146.407 126.445, 146.537 128.682, 149.038 130.020 C 153.119 132.204, 157.436 128.579, 154.386 125.529 C 152.620 123.762, 151.206 123.650, 148.750 125.080 M 142.416 131.357 C 142.100 132.181, 141.990 133.900, 142.171 135.177 C 142.415 136.900, 143.145 137.500, 145 137.500 C 147.190 137.500, 147.500 137.067, 147.500 134 C 147.500 131.130, 147.094 130.442, 145.246 130.180 C 143.931 129.993, 142.751 130.484, 142.416 131.357 M 39.607 132.582 C 39.273 133.452, 39 135.300, 39 136.689 C 39 138.581, 39.397 139.062, 40.582 138.607 C 41.452 138.273, 42.979 138, 43.975 138 C 46.094 138, 47.296 135.508, 46.455 132.859 C 45.709 130.506, 40.485 130.295, 39.607 132.582" stroke="none" fill="#040404" fill-rule="evenodd"/></svg>