<?xml version="1.0" encoding="UTF-8"?>
<svg version="1.1" xmlns="http://www.w3.org/2000/svg" width="160" height="160">
<path d="M0 0 C7.3414709 4.96344266 12.00016239 12.23835509 14.3046875 20.7421875 C15.26988494 27.02009561 14.97378465 33.384284 14.76171875 39.71484375 C16.19064453 39.91787109 16.19064453 39.91787109 17.6484375 40.125 C20.89276245 40.73967135 21.81647665 41.15531468 23.76171875 43.71484375 C25.73510723 47.66162072 25.20462023 52.41323898 24.76171875 56.71484375 C22.52118461 61.2759311 21.35122196 62.42009214 16.76171875 64.71484375 C17.75171875 70.98484375 18.74171875 77.25484375 19.76171875 83.71484375 C21.12296875 82.76609375 22.48421875 81.81734375 23.88671875 80.83984375 C29.52495654 77.09866562 33.91729107 75.38891862 40.76171875 75.71484375 C40.76171875 72.41484375 40.76171875 69.11484375 40.76171875 65.71484375 C38.78171875 64.72484375 38.78171875 64.72484375 36.76171875 63.71484375 C35.23325214 60.65791053 35.5292943 58.08499828 35.76171875 54.71484375 C36.82421875 52.33984375 36.82421875 52.33984375 38.76171875 50.71484375 C42.73516036 49.61110997 44.85171647 49.29940792 48.63671875 51.02734375 C50.76171875 52.71484375 50.76171875 52.71484375 51.76171875 54.71484375 C52.22005208 60.90234375 52.22005208 60.90234375 50.38671875 64.15234375 C48.76171875 65.71484375 48.76171875 65.71484375 46.76171875 65.71484375 C47.25671875 70.16984375 47.25671875 70.16984375 47.76171875 74.71484375 C50.73171875 75.37484375 53.70171875 76.03484375 56.76171875 76.71484375 C57.13296875 75.38453125 57.13296875 75.38453125 57.51171875 74.02734375 C58.76171875 70.71484375 58.76171875 70.71484375 60.82421875 68.27734375 C63.22987646 65.09566743 63.25609637 62.61535929 63.76171875 58.71484375 C64.88671875 56.83984375 64.88671875 56.83984375 66.76171875 55.71484375 C70.16505101 54.91041976 72.69009957 54.39625426 76.07421875 55.40234375 C78.23891766 57.08599846 78.97442791 58.06668364 79.76171875 60.71484375 C79.58504063 64.07172795 79.3832113 66.67902283 77.63671875 69.58984375 C74.84353523 71.26575386 71.96260002 71.31473359 68.76171875 71.71484375 C67.77171875 72.37484375 66.78171875 73.03484375 65.76171875 73.71484375 C65.21652219 76.93150344 64.9735193 78.64649591 65.76171875 81.71484375 C67.29201955 83.58374558 68.99797402 85.06298356 70.80859375 86.66015625 C77.63409964 93.84058845 80.11557806 103.40222603 79.97265625 113.03515625 C79.16761485 123.2621637 74.357002 131.59176979 66.94921875 138.52734375 C58.17011125 145.78990677 48.86613006 147.3538444 37.76171875 146.71484375 C36.20848995 146.39105154 34.66302752 146.02313653 33.13671875 145.58984375 C31.46609375 145.15671875 31.46609375 145.15671875 29.76171875 144.71484375 C29.10171875 145.37484375 28.44171875 146.03484375 27.76171875 146.71484375 C24.66847673 146.9138508 21.66472101 146.98745957 18.5703125 146.97363281 C17.14091843 146.97888977 17.14091843 146.97888977 15.68264771 146.98425293 C12.5214314 146.99308128 9.36043748 146.98721717 6.19921875 146.98046875 C4.00968381 146.98181508 1.82014915 146.98375535 -0.36938477 146.98626709 C-4.96275676 146.98921985 -9.55605108 146.9849158 -14.14941406 146.97558594 C-20.04793988 146.96419136 -25.94628372 146.97075001 -31.84480286 146.98273087 C-36.36740499 146.98994535 -40.88996372 146.98766343 -45.41256714 146.98247528 C-47.58796205 146.98113764 -49.76336086 146.98279046 -51.93875122 146.98743439 C-54.97489923 146.99249284 -58.01074928 146.98479893 -61.046875 146.97363281 C-61.95291473 146.97768127 -62.85895447 146.98172974 -63.79244995 146.98590088 C-70.00975378 146.94337122 -70.00975378 146.94337122 -72.23828125 144.71484375 C-73.67458819 135.30039488 -73.81558104 122.73916396 -68.23828125 114.71484375 C-62.7002666 107.73449605 -55.62275998 105.79650744 -47.23828125 103.71484375 C-46.11679687 103.41578125 -44.9953125 103.11671875 -43.83984375 102.80859375 C-35.83318866 100.71484375 -35.83318866 100.71484375 -32.23828125 100.71484375 C-32.23828125 99.39484375 -32.23828125 98.07484375 -32.23828125 96.71484375 C-33.07601074 96.72531738 -33.91374023 96.73579102 -34.77685547 96.74658203 C-37.88166289 96.78064394 -40.98637517 96.80573286 -44.09130859 96.82470703 C-46.09739485 96.83972482 -48.10339449 96.86513356 -50.109375 96.890625 C-51.36621094 96.89707031 -52.62304688 96.90351562 -53.91796875 96.91015625 C-55.08054199 96.92062988 -56.24311523 96.93110352 -57.44091797 96.94189453 C-60.23828125 96.71484375 -60.23828125 96.71484375 -62.23828125 94.71484375 C-62.27446413 92.24234668 -62.18954823 89.92012916 -61.98828125 87.46484375 C-61.93744385 86.7584375 -61.88660645 86.05203125 -61.83422852 85.32421875 C-61.29608706 78.40636014 -60.3407242 71.56497472 -59.23828125 64.71484375 C-60.15867187 64.29525391 -60.15867187 64.29525391 -61.09765625 63.8671875 C-64.47240202 62.05049042 -65.54930241 60.15312211 -67.23828125 56.71484375 C-67.86802699 51.40808393 -68.15895864 46.3670656 -65.23828125 41.71484375 C-62.24539134 39.71958381 -61.00742529 39.71484375 -57.23828125 39.71484375 C-57.27308594 38.67585938 -57.30789062 37.636875 -57.34375 36.56640625 C-57.63536754 24.30226848 -56.45645272 14.44590587 -48.23828125 4.71484375 C-35.30610898 -8.01880834 -15.25637492 -8.75976849 0 0 Z M-46.23828125 12.71484375 C-51.65169967 20.82734685 -50.62734036 30.39903948 -50.23828125 39.71484375 C-36.18864493 40.28250582 -24.28559517 39.51932368 -12.140625 31.5703125 C-10.23828125 30.71484375 -10.23828125 30.71484375 -8.19921875 30.89453125 C-5.31888411 32.09945212 -3.51204989 34.07459233 -1.3125 36.2421875 C1.51403448 38.24897375 4.42344448 38.88924904 7.76171875 39.71484375 C8.70230794 24.02175608 8.70230794 24.02175608 1.7734375 10.44140625 C-6.01899953 2.98543023 -12.66757702 1.20807618 -23.30493164 1.29467773 C-32.79586883 1.64240843 -40.05304541 5.5103704 -46.23828125 12.71484375 Z M-10.23828125 37.71484375 C-10.8209375 38.04097656 -11.40359375 38.36710937 -12.00390625 38.703125 C-24.38670205 45.3033888 -36.47834321 46.27146797 -50.23828125 46.71484375 C-50.35624106 50.17288106 -50.42610877 53.63038932 -50.48828125 57.08984375 C-50.52179687 58.05535156 -50.5553125 59.02085938 -50.58984375 60.015625 C-50.6984587 68.10743902 -49.26889553 74.89239604 -44.16015625 81.3359375 C-35.36824729 88.68888294 -28.51204788 90.47722568 -17.0859375 90.05859375 C-8.47722577 89.28949057 -1.89360283 85.1894849 3.76171875 78.71484375 C7.76030299 71.68090182 8.28727247 65.02791049 8.01171875 57.08984375 C7.99367187 56.08566406 7.975625 55.08148438 7.95703125 54.046875 C7.91045872 51.60181723 7.84508903 49.15887563 7.76171875 46.71484375 C7.04886719 46.48410156 6.33601563 46.25335938 5.6015625 46.015625 C-0.4728721 43.94721053 -5.22519119 41.7253158 -10.23828125 37.71484375 Z M-60.23828125 46.71484375 C-60.31959588 48.15140229 -60.37761684 49.58929205 -60.42578125 51.02734375 C-60.46058594 51.82785156 -60.49539062 52.62835938 -60.53125 53.453125 C-60.41621899 56.1473189 -60.41621899 56.1473189 -57.23828125 58.71484375 C-57.23828125 54.75484375 -57.23828125 50.79484375 -57.23828125 46.71484375 C-58.22828125 46.71484375 -59.21828125 46.71484375 -60.23828125 46.71484375 Z M14.76171875 46.71484375 C14.76171875 50.67484375 14.76171875 54.63484375 14.76171875 58.71484375 C17.93965649 56.1473189 17.93965649 56.1473189 18.0546875 53.453125 C18.00248047 52.25236328 18.00248047 52.25236328 17.94921875 51.02734375 C17.92214844 50.21910156 17.89507812 49.41085938 17.8671875 48.578125 C17.83238281 47.96324219 17.79757813 47.34835938 17.76171875 46.71484375 C16.77171875 46.71484375 15.78171875 46.71484375 14.76171875 46.71484375 Z M42.76171875 56.71484375 C42.76171875 57.70484375 42.76171875 58.69484375 42.76171875 59.71484375 C43.75171875 59.38484375 44.74171875 59.05484375 45.76171875 58.71484375 C45.43171875 58.05484375 45.10171875 57.39484375 44.76171875 56.71484375 C44.10171875 56.71484375 43.44171875 56.71484375 42.76171875 56.71484375 Z M69.76171875 61.71484375 C69.76171875 62.70484375 69.76171875 63.69484375 69.76171875 64.71484375 C70.75171875 64.71484375 71.74171875 64.71484375 72.76171875 64.71484375 C72.76171875 63.72484375 72.76171875 62.73484375 72.76171875 61.71484375 C71.77171875 61.71484375 70.78171875 61.71484375 69.76171875 61.71484375 Z M-54.23828125 77.71484375 C-54.56828125 81.67484375 -54.89828125 85.63484375 -55.23828125 89.71484375 C-51.60828125 89.71484375 -47.97828125 89.71484375 -44.23828125 89.71484375 C-45.14578125 88.66296875 -46.05328125 87.61109375 -46.98828125 86.52734375 C-49.46734356 83.63706257 -51.88141654 80.70624896 -54.23828125 77.71484375 Z M10.76171875 77.71484375 C9.58293352 79.31610088 8.44375498 80.94661593 7.32421875 82.58984375 C3.96799678 87.50856572 3.96799678 87.50856572 1.76171875 89.71484375 C5.39171875 89.71484375 9.02171875 89.71484375 12.76171875 89.71484375 C12.43171875 85.75484375 12.10171875 81.79484375 11.76171875 77.71484375 C11.43171875 77.71484375 11.10171875 77.71484375 10.76171875 77.71484375 Z M37.76171875 81.71484375 C37.76171875 82.04484375 37.76171875 82.37484375 37.76171875 82.71484375 C41.72171875 82.71484375 45.68171875 82.71484375 49.76171875 82.71484375 C49.76171875 82.38484375 49.76171875 82.05484375 49.76171875 81.71484375 C45.80171875 81.71484375 41.84171875 81.71484375 37.76171875 81.71484375 Z M27.19921875 96.12109375 C22.90075268 100.88678439 21.6060528 106.43631701 21.76171875 112.71484375 C22.89401037 119.27773792 25.83448264 124.27067 30.76171875 128.71484375 C36.01608171 132.21775239 41.8743046 133.38553664 48.09375 132.3125 C54.88493554 130.35728645 59.72491363 126.77005144 63.63671875 120.90234375 C66.00031713 114.20548168 66.41741632 108.55715744 63.83984375 101.85546875 C60.92481333 96.06765472 56.94115557 91.89582145 50.76171875 89.71484375 C41.65246995 87.50654101 34.00523673 89.69318788 27.19921875 96.12109375 Z M18.76171875 94.71484375 C19.76171875 96.71484375 19.76171875 96.71484375 19.76171875 96.71484375 Z M67.76171875 94.71484375 C68.76171875 96.71484375 68.76171875 96.71484375 68.76171875 96.71484375 Z M-25.23828125 96.71484375 C-25.29220118 98.50618353 -25.33103696 100.29798274 -25.36328125 102.08984375 C-25.38648438 103.08757812 -25.4096875 104.0853125 -25.43359375 105.11328125 C-25.51044973 107.87746548 -25.51044973 107.87746548 -23.23828125 109.71484375 C-19.93144659 109.42501106 -19.93144659 109.42501106 -17.23828125 107.71484375 C-17.16601623 105.86196873 -17.15446905 104.00650497 -17.17578125 102.15234375 C-17.18480469 101.14042969 -17.19382812 100.12851563 -17.203125 99.0859375 C-17.21472656 98.30347656 -17.22632813 97.52101563 -17.23828125 96.71484375 C-19.87828125 96.71484375 -22.51828125 96.71484375 -25.23828125 96.71484375 Z M-10.23828125 96.71484375 C-10.23828125 99.35484375 -10.23828125 101.99484375 -10.23828125 104.71484375 C-9.53703125 104.36421875 -8.83578125 104.01359375 -8.11328125 103.65234375 C-4.65598433 102.52496432 -2.71745827 102.73159807 0.76171875 103.71484375 C1.76171875 104.71484375 2.76171875 105.71484375 3.76171875 106.71484375 C5.41171875 106.71484375 7.06171875 106.71484375 8.76171875 106.71484375 C9.42171875 103.41484375 10.08171875 100.11484375 10.76171875 96.71484375 C3.83171875 96.71484375 -3.09828125 96.71484375 -10.23828125 96.71484375 Z M17.76171875 96.71484375 C18.76171875 98.71484375 18.76171875 98.71484375 18.76171875 98.71484375 Z M68.76171875 96.71484375 C69.76171875 98.71484375 69.76171875 98.71484375 69.76171875 98.71484375 Z M16.76171875 98.71484375 C17.76171875 100.71484375 17.76171875 100.71484375 17.76171875 100.71484375 Z M69.76171875 98.71484375 C70.76171875 100.71484375 70.76171875 100.71484375 70.76171875 100.71484375 Z M15.76171875 100.71484375 C16.76171875 103.71484375 16.76171875 103.71484375 16.76171875 103.71484375 Z M70.76171875 100.71484375 C71.76171875 103.71484375 71.76171875 103.71484375 71.76171875 103.71484375 Z M14.76171875 104.71484375 C14.76171875 108.67484375 14.76171875 112.63484375 14.76171875 116.71484375 C15.09171875 116.71484375 15.42171875 116.71484375 15.76171875 116.71484375 C15.76171875 112.75484375 15.76171875 108.79484375 15.76171875 104.71484375 C15.43171875 104.71484375 15.10171875 104.71484375 14.76171875 104.71484375 Z M71.76171875 104.71484375 C71.76171875 108.67484375 71.76171875 112.63484375 71.76171875 116.71484375 C72.09171875 116.71484375 72.42171875 116.71484375 72.76171875 116.71484375 C72.76171875 112.75484375 72.76171875 108.79484375 72.76171875 104.71484375 C72.43171875 104.71484375 72.10171875 104.71484375 71.76171875 104.71484375 Z M-44.55078125 109.96484375 C-45.39318359 110.16980469 -46.23558594 110.37476562 -47.10351562 110.5859375 C-54.60325167 112.52097495 -59.69981289 115.15927835 -64.23828125 121.71484375 C-65.44450645 125.33351934 -65.34645043 128.63990626 -65.30078125 132.40234375 C-65.29626953 133.10423828 -65.29175781 133.80613281 -65.28710938 134.52929688 C-65.27535052 136.25784913 -65.25741579 137.9863574 -65.23828125 139.71484375 C-60.94828125 139.71484375 -56.65828125 139.71484375 -52.23828125 139.71484375 C-52.23828125 134.76484375 -52.23828125 129.81484375 -52.23828125 124.71484375 C-49.92828125 124.71484375 -47.61828125 124.71484375 -45.23828125 124.71484375 C-45.23828125 129.66484375 -45.23828125 134.61484375 -45.23828125 139.71484375 C-34.34828125 139.71484375 -23.45828125 139.71484375 -12.23828125 139.71484375 C-11.57828125 137.07484375 -10.91828125 134.43484375 -10.23828125 131.71484375 C-9.22507812 131.56789062 -9.22507812 131.56789062 -8.19140625 131.41796875 C-2.74551833 130.50507424 -0.06555662 129.80606915 3.76171875 125.71484375 C7.51171875 124.96484375 7.51171875 124.96484375 10.76171875 124.71484375 C9.77171875 119.76484375 9.77171875 119.76484375 8.76171875 114.71484375 C7.11171875 114.38484375 5.46171875 114.05484375 3.76171875 113.71484375 C3.14296875 114.35421875 2.52421875 114.99359375 1.88671875 115.65234375 C-0.23828125 117.71484375 -0.23828125 117.71484375 -3.80078125 118.15234375 C-7.23828125 117.71484375 -7.23828125 117.71484375 -9.05078125 116.40234375 C-10.13819161 114.85707639 -11.19016022 113.28702529 -12.23828125 111.71484375 C-12.75390625 112.18921875 -13.26953125 112.66359375 -13.80078125 113.15234375 C-17.03826852 115.2276561 -19.40382769 115.58262121 -23.23828125 115.71484375 C-28.13291282 114.02054821 -29.74313334 112.11105673 -32.23828125 107.71484375 C-36.5334525 107.71484375 -40.40814193 108.89557383 -44.55078125 109.96484375 Z M-4.23828125 108.71484375 C-4.23828125 110.03484375 -4.23828125 111.35484375 -4.23828125 112.71484375 C-3.57828125 112.38484375 -2.91828125 112.05484375 -2.23828125 111.71484375 C-2.56828125 110.72484375 -2.89828125 109.73484375 -3.23828125 108.71484375 C-3.56828125 108.71484375 -3.89828125 108.71484375 -4.23828125 108.71484375 Z M15.76171875 117.71484375 C16.76171875 120.71484375 16.76171875 120.71484375 16.76171875 120.71484375 Z M70.76171875 117.71484375 C71.76171875 120.71484375 71.76171875 120.71484375 71.76171875 120.71484375 Z M16.76171875 120.71484375 C17.76171875 122.71484375 17.76171875 122.71484375 17.76171875 122.71484375 Z M69.76171875 120.71484375 C70.76171875 122.71484375 70.76171875 122.71484375 70.76171875 122.71484375 Z M17.76171875 122.71484375 C18.76171875 124.71484375 18.76171875 124.71484375 18.76171875 124.71484375 Z M68.76171875 122.71484375 C69.76171875 124.71484375 69.76171875 124.71484375 69.76171875 124.71484375 Z M18.76171875 124.71484375 C19.76171875 126.71484375 19.76171875 126.71484375 19.76171875 126.71484375 Z M67.76171875 124.71484375 C68.76171875 126.71484375 68.76171875 126.71484375 68.76171875 126.71484375 Z M4.69921875 133.46484375 C3.39888701 135.9550473 3.39888701 135.9550473 4.76171875 139.71484375 C10.37171875 139.71484375 15.98171875 139.71484375 21.76171875 139.71484375 C20.79234375 138.58046875 19.82296875 137.44609375 18.82421875 136.27734375 C18.27894531 135.63925781 17.73367187 135.00117188 17.171875 134.34375 C14.97228212 131.62811983 14.97228212 131.62811983 10.88671875 131.40234375 C7.46813411 131.44076964 7.46813411 131.44076964 4.69921875 133.46484375 Z M-5.23828125 136.71484375 C-5.23828125 137.70484375 -5.23828125 138.69484375 -5.23828125 139.71484375 C-4.24828125 139.71484375 -3.25828125 139.71484375 -2.23828125 139.71484375 C-2.23828125 138.72484375 -2.23828125 137.73484375 -2.23828125 136.71484375 C-3.22828125 136.71484375 -4.21828125 136.71484375 -5.23828125 136.71484375 Z M37.76171875 138.71484375 C37.76171875 139.04484375 37.76171875 139.37484375 37.76171875 139.71484375 C41.72171875 139.71484375 45.68171875 139.71484375 49.76171875 139.71484375 C49.76171875 139.38484375 49.76171875 139.05484375 49.76171875 138.71484375 C45.80171875 138.71484375 41.84171875 138.71484375 37.76171875 138.71484375 Z " fill="#000000" transform="translate(76.23828125,9.28515625)"/>
<path d="M0 0 C2.921875 1.4609375 2.921875 1.4609375 5.75 3.375 C6.69359375 4.00148438 7.6371875 4.62796875 8.609375 5.2734375 C12.89325417 8.36735024 12.89325417 8.36735024 13.30639648 10.81591797 C13.37636677 13.16955986 13.42091786 15.52033549 13.4375 17.875 C13.47037109 18.69097656 13.50324219 19.50695312 13.53710938 20.34765625 C13.59121891 26.37841025 13.59121891 26.37841025 10.71875 29.3984375 C9.37296875 30.19121094 9.37296875 30.19121094 8 31 C7.33097656 31.48984375 6.66195312 31.9796875 5.97265625 32.484375 C5.34230469 32.90203125 4.71195313 33.3196875 4.0625 33.75 C3.43472656 34.17796875 2.80695313 34.6059375 2.16015625 35.046875 C-0.78827952 36.3478123 -2.79997403 36.36226709 -6 36 C-8.921875 34.5390625 -8.921875 34.5390625 -11.75 32.625 C-12.69359375 31.99851563 -13.6371875 31.37203125 -14.609375 30.7265625 C-18.89325417 27.63264976 -18.89325417 27.63264976 -19.30639648 25.18408203 C-19.37636677 22.83044014 -19.42091786 20.47966451 -19.4375 18.125 C-19.48680664 16.90103516 -19.48680664 16.90103516 -19.53710938 15.65234375 C-19.59121891 9.62158975 -19.59121891 9.62158975 -16.71875 6.6015625 C-15.8215625 6.07304688 -14.924375 5.54453125 -14 5 C-13.33097656 4.51015625 -12.66195312 4.0203125 -11.97265625 3.515625 C-11.34230469 3.09796875 -10.71195313 2.6803125 -10.0625 2.25 C-9.12083984 1.60804687 -9.12083984 1.60804687 -8.16015625 0.953125 C-5.21172048 -0.3478123 -3.20002597 -0.36226709 0 0 Z M-10.2578125 10.109375 C-12.64076949 12.6953642 -12.78570851 14.51990626 -13 18 C-12.77608045 21.42216673 -12.57459984 23.31157728 -10.36328125 25.9609375 C-8.25031886 27.41787537 -6.47477728 28.32590022 -4 29 C-1.24308557 28.66390749 -1.24308557 28.66390749 1 27 C1.8559375 26.59523437 2.711875 26.19046875 3.59375 25.7734375 C6.24751078 24.19803955 6.24751078 24.19803955 6.76953125 21.2578125 C7.05455647 15.19106683 7.05455647 15.19106683 4.26953125 10.1015625 C-1.4605781 6.49023675 -4.53623775 6.46265703 -10.2578125 10.109375 Z " fill="#000000" transform="translate(123,102)"/>
<path d="M0 0 C2.31 0 4.62 0 7 0 C7 2.97 7 5.94 7 9 C4.69 9 2.38 9 0 9 C0 6.03 0 3.06 0 0 Z " fill="#000000" transform="translate(64,59)"/>
<path d="M0 0 C2.31 0 4.62 0 7 0 C7 2.97 7 5.94 7 9 C4.69 9 2.38 9 0 9 C0 6.03 0 3.06 0 0 Z " fill="#000000" transform="translate(39,59)"/>
</svg>
