<svg xmlns="http://www.w3.org/2000/svg" width="160" height="160" viewBox="0 0 160 160" version="1.1"><path d="" stroke="none" fill="#080404" fill-rule="evenodd"/><path d="M 71 9.668 C 37.076 11.595, 15.035 18.756, 12.550 28.659 C 11.040 34.674, 17.725 41.082, 29.653 45.051 L 36 47.163 36 76.028 L 36 104.892 30.461 102.987 C 27.415 101.939, 23.590 100.132, 21.961 98.972 L 19 96.864 19 83.366 C 19 75.942, 18.534 68.998, 17.965 67.934 C 16.639 65.457, 14.361 65.457, 13.035 67.934 C 11.906 70.044, 11.611 90.803, 12.637 95.935 C 13.897 102.233, 21.431 107.339, 34.384 110.671 C 39.280 111.930, 40.411 111.959, 41.119 110.842 C 41.587 110.104, 41.976 103.558, 41.985 96.295 L 42 83.091 45.750 82.471 C 57.663 80.502, 57.500 80.564, 57.500 77.968 C 57.500 75.752, 57.091 75.502, 53.500 75.517 C 51.300 75.527, 47.823 75.834, 45.773 76.201 L 42.047 76.867 41.773 59.692 L 41.500 42.517 33.309 39.869 C 22.817 36.476, 18.781 33.702, 19.194 30.168 C 19.798 25.007, 35.648 19.318, 56.022 16.949 C 69.325 15.402, 104.677 16.276, 115 18.406 C 132.814 22.083, 143.034 27.167, 141.613 31.645 C 140.904 33.878, 133.895 38.023, 127.500 39.990 C 121.011 41.986, 120.911 42.346, 121.647 61.071 L 122.303 77.749 114.901 76.347 C 110.831 75.576, 104.125 74.845, 100 74.723 C 92.618 74.504, 92.500 74.539, 92.500 76.986 C 92.500 79.246, 93 79.538, 98 80.188 C 113.309 82.181, 119.734 83.218, 120.782 83.865 C 121.534 84.330, 122.035 89.101, 122.219 97.540 L 122.500 110.500 125.500 110.356 C 130.686 110.107, 139.952 105.965, 144.055 102.062 L 148 98.310 148 62.732 L 148 27.153 145.542 24.232 C 142.762 20.929, 134.313 16.838, 125.566 14.559 C 113.245 11.350, 85.372 8.851, 71 9.668 M 73.635 38.073 C 71.417 39.817, 71 40.935, 71 45.138 C 71 51.278, 72.048 53.363, 75.945 54.977 C 82.909 57.862, 90 53.306, 90 45.947 C 90 40.773, 89.231 39.171, 85.928 37.463 C 81.904 35.382, 76.730 35.638, 73.635 38.073 M 50.048 41.798 C 45.748 46.098, 45.748 51.902, 50.048 56.202 C 52.780 58.934, 53.568 59.196, 57.660 58.735 C 64.063 58.013, 66.385 55.423, 66.385 49 C 66.385 42.577, 64.063 39.987, 57.660 39.265 C 53.568 38.804, 52.780 39.066, 50.048 41.798 M 99.500 40.155 C 96.117 42.005, 95 44.193, 95 48.969 C 95 54.703, 97.058 57.733, 101.522 58.570 C 109.172 60.005, 114 56.528, 114 49.582 C 114 43.751, 113.314 42.214, 109.928 40.463 C 106.605 38.745, 102.310 38.618, 99.500 40.155 M 140.717 40.708 C 140.286 41.373, 137.248 42.896, 133.967 44.092 L 128 46.268 128 75.109 L 128 103.950 130.716 102.918 C 136.257 100.811, 141.078 97.536, 141.562 95.548 C 142.381 92.188, 141.567 39.396, 140.717 40.708 M 77.713 42.621 C 77.321 43.013, 77 44.608, 77 46.167 C 77 48.748, 77.317 49, 80.563 49 C 83.981 49, 84.114 48.867, 83.813 45.750 C 83.559 43.116, 83.019 42.444, 80.963 42.204 C 79.567 42.041, 78.104 42.229, 77.713 42.621 M 12.309 45.636 C 10.836 49.475, 16.149 52.296, 18.333 48.834 C 19.096 47.625, 19.023 46.733, 18.070 45.584 C 16.359 43.523, 13.109 43.552, 12.309 45.636 M 54.250 45.644 C 53.563 45.931, 53 47.471, 53 49.064 C 53 51.343, 53.550 52.100, 55.573 52.608 C 58.838 53.427, 60.246 52.025, 59.828 48.372 C 59.501 45.512, 57.225 44.399, 54.250 45.644 M 101.415 46.360 C 101.100 47.182, 100.990 48.900, 101.171 50.177 C 101.432 52.018, 102.122 52.500, 104.500 52.500 C 107.262 52.500, 107.500 52.222, 107.500 49 C 107.500 45.923, 107.167 45.462, 104.744 45.183 C 102.996 44.982, 101.779 45.412, 101.415 46.360 M 12.309 56.636 C 10.836 60.475, 16.149 63.296, 18.333 59.834 C 19.096 58.625, 19.023 57.733, 18.070 56.584 C 16.359 54.523, 13.109 54.552, 12.309 56.636 M 68 67.243 C 65.513 68.549, 65.497 68.645, 64.964 86.028 C 64.669 95.637, 64.332 102.930, 64.214 102.234 C 64.096 101.537, 62.453 100.230, 60.562 99.328 C 57.359 97.801, 56.946 97.805, 54.516 99.397 C 49.067 102.968, 49.226 104.263, 57.112 120.544 C 63.089 132.883, 64.456 136.633, 64.928 141.976 C 65.696 150.676, 66.353 150.966, 85.295 150.985 C 99.680 151, 100.159 150.932, 102.545 148.545 C 104.644 146.447, 105 145.155, 105 139.648 C 105 134.616, 105.545 132.251, 107.488 128.852 C 109.801 124.805, 109.976 123.553, 109.973 111 C 109.971 103.575, 109.639 97.005, 109.235 96.400 C 108.189 94.833, 104.452 93, 102.306 93 C 101.302 93, 99.945 92.142, 99.291 91.094 C 98.636 90.046, 96.503 88.661, 94.549 88.016 C 92.596 87.372, 89.683 85.529, 88.076 83.922 C 86.469 82.315, 84.219 81, 83.077 81 C 81.233 81, 81 80.399, 81 75.655 C 81 71.698, 80.513 69.869, 79.124 68.612 C 76.590 66.319, 71.058 65.638, 68 67.243 M 71.688 72.646 C 71.309 73.024, 71 82.428, 71 93.544 C 71 110.916, 70.774 113.943, 69.387 115.093 C 67.998 116.247, 67.411 116.022, 65.137 113.464 C 63.687 111.832, 61.524 109.149, 60.332 107.500 C 55.505 100.831, 57.079 106.830, 63.838 120.868 C 69.162 131.926, 71 136.803, 71 139.872 L 71 144 85 144 L 99 144 99 137.967 C 99 133.514, 99.655 130.641, 101.500 127 C 103.737 122.586, 104 120.853, 104 110.533 C 104 99.667, 103.884 99, 102 99 C 100.489 99, 99.996 99.672, 99.985 101.750 C 99.964 105.436, 98.662 107.273, 96.380 106.838 C 94.820 106.541, 94.449 105.419, 94.202 100.240 C 94.039 96.808, 93.476 94, 92.952 94 C 92.429 94, 91.662 93.992, 91.250 93.983 C 90.838 93.974, 90.275 96.786, 90 100.233 C 89.530 106.118, 89.348 106.500, 87 106.500 C 84.546 106.500, 84.491 106.328, 84 97.080 C 83.667 90.807, 83.082 87.521, 82.250 87.246 C 81.314 86.937, 80.996 89.052, 80.985 95.667 C 80.968 105.246, 80.276 107.391, 77.380 106.836 C 75.652 106.505, 75.459 105.105, 75 89.570 C 74.533 73.781, 73.881 70.452, 71.688 72.646" stroke="none" fill="#040404" fill-rule="evenodd"/></svg>